<?xml version="1.0" encoding="UTF-8"?>
<!DOCTYPE svg PUBLIC "-//W3C//DTD SVG 1.1//EN" "http://www.w3.org/Graphics/SVG/1.1/DTD/svg11.dtd">
<svg version="1.1" xmlns="http://www.w3.org/2000/svg" xmlns:xlink="http://www.w3.org/1999/xlink" x="0" y="0" width="100" height="100" viewBox="0, 0, 1425, 545">
  <g id="Layer_1">
    <path d="M1143.8,421.895 C1144.777,416.13 1145.677,410.353 1146.943,404.735 C1148.025,399.088 1149.47,393.608 1150.782,388.29 C1152.24,383.01 1153.645,377.903 1155.223,373.125 C1156.02,370.74 1156.795,368.423 1157.542,366.175 C1158.31,363.94 1159.188,361.815 1159.958,359.76 C1161.448,355.622 1163.19,351.955 1164.623,348.67 C1166.08,345.395 1167.713,342.558 1168.878,340.22 C1169.42,339.25 1169.922,338.42 1170.385,337.675 L1128.333,316.883 C1128.333,316.883 1129.848,334.562 1131.93,344.06 C1128.09,357.5 1040.98,418.183 860.15,419.295 C845.99,419.383 832.408,419.018 819.278,418.348 L1140.995,446.413 C1141.19,444.035 1141.402,441.643 1141.605,439.228 C1142.172,433.49 1142.95,427.683 1143.8,421.895" fill="#ADADA9"/>
    <path d="M1173.255,345.492 C1172.425,347.202 1171.483,349.097 1170.568,351.332 C1169.285,354.537 1167.718,358.085 1166.392,362.147 C1165.708,364.165 1164.917,366.237 1164.24,368.435 C1163.578,370.635 1162.892,372.912 1162.188,375.257 C1160.792,379.942 1159.573,384.972 1158.302,390.157 C1157.182,395.382 1155.932,400.76 1155.04,406.302 C1153.968,411.812 1153.26,417.467 1152.478,423.11 C1151.82,428.76 1151.233,434.425 1150.85,440.005 C1150.552,445.592 1150.152,451.085 1150.208,456.4 C1150.198,459.057 1150.12,461.672 1150.167,464.225 C1150.27,466.775 1150.373,469.267 1150.47,471.697 C1150.545,476.56 1151.155,481.105 1151.522,485.31 C1151.805,489.535 1152.635,493.307 1153.115,496.687 C1153.392,498.375 1153.61,499.96 1153.887,501.405 C1154.223,502.835 1154.532,504.155 1154.81,505.34 C1155.915,510.092 1156.545,512.8 1156.545,512.8 L1150.968,514.242 L1161.43,514.242 C1150.14,457.885 1162.777,383.797 1173.255,345.492" fill="#ADADA9"/>
    <path d="M1228.758,371.26 C1235.075,400.902 1236.13,436.277 1237.068,468.8 C1237.533,484.988 1238.005,500.285 1239.03,514.242 L1244.215,514.242 C1243.93,507.083 1243.725,499.573 1243.513,491.793 C1242.468,453.16 1241.218,407.473 1228.758,371.26" fill="#ADADA9"/>
    <path d="M1180.507,368.44 C1180.767,365.87 1181.015,363.393 1181.257,360.965 C1171.98,400.615 1162.792,465.728 1173.195,514.242 L1177.535,514.242 C1170.425,468.145 1176.44,408.568 1180.507,368.44" fill="#ADADA9"/>
    <path d="M1216.293,368.31 C1218.913,390.51 1219.195,416.965 1219.48,444.372 C1219.728,468.405 1220,493.135 1222.043,514.242 L1227.483,514.242 C1226.483,500.265 1226.015,485.133 1225.552,469.133 C1224.57,435.053 1223.458,397.753 1216.293,368.31" fill="#ADADA9"/>
    <path d="M1260.927,484.87 C1260.938,480.467 1260.762,475.733 1260.675,470.703 C1260.455,465.693 1260.338,460.39 1259.943,454.945 C1259.758,452.215 1259.57,449.448 1259.378,446.64 C1259.105,443.845 1258.825,441.02 1258.545,438.168 C1258.305,435.31 1257.917,432.458 1257.515,429.592 C1257.095,426.735 1256.812,423.833 1256.275,420.985 C1255.767,418.13 1255.258,415.277 1254.748,412.432 C1254.248,409.585 1253.5,406.82 1252.897,404.038 C1251.767,398.435 1249.953,393.145 1248.525,387.918 C1247.61,385.378 1246.715,382.878 1245.838,380.428 C1245.397,379.205 1244.963,377.997 1244.53,376.8 C1244.06,375.73 1243.59,374.673 1243.13,373.63 L1241.35,372.75 C1252.795,409.65 1254.005,453.815 1255.025,491.48 C1255.245,499.378 1255.45,506.995 1255.743,514.242 L1260.787,514.242 C1260.787,514.242 1260.823,511.298 1260.88,506.143 C1260.922,500.997 1261.005,493.655 1260.927,484.87" fill="#ADADA9"/>
    <path d="M1204.228,365.068 C1204.448,379.242 1203.983,395.625 1203.473,413.33 C1202.518,446.615 1201.458,483.98 1205.165,514.242 L1210.463,514.242 C1208.47,492.905 1208.208,468.348 1207.963,444.49 C1207.672,416.49 1207.368,387.865 1204.228,365.068" fill="#ADADA9"/>
    <path d="M769.5,414.005 L769.915,414.043 C769.79,414.025 769.657,414.01 769.532,413.997 L769.5,414.005" fill="#ADADA9"/>
    <path d="M1191.96,413.003 C1192.477,394.967 1192.972,377.533 1192.65,362.815 C1192.425,365.025 1192.203,367.277 1191.967,369.603 C1187.905,409.675 1181.885,469.427 1189.212,514.242 L1193.57,514.242 C1189.955,483.372 1191.007,446.19 1191.96,413.003" fill="#ADADA9"/>
    <path d="M1261.405,401.92 C1262.1,404.79 1262.948,407.665 1263.54,410.592 C1264.135,413.517 1264.735,416.452 1265.335,419.392 C1265.96,422.33 1266.33,425.297 1266.835,428.237 C1267.318,431.18 1267.792,434.112 1268.112,437.035 C1268.472,439.955 1268.828,442.85 1269.18,445.715 C1269.445,448.58 1269.705,451.412 1269.963,454.195 C1270.51,459.767 1270.757,465.152 1271.11,470.262 C1271.32,475.365 1271.617,480.197 1271.718,484.645 C1272.015,493.547 1272.112,500.947 1272.2,506.12 C1272.237,508.86 1272.265,510.957 1272.282,512.342 L1422.912,462.49 L1254.022,379.012 C1254.818,381.07 1255.617,383.14 1256.435,385.26 C1258.062,390.655 1260.085,396.158 1261.405,401.92" fill="#ADADA9"/>
    <path d="M375.072,384.253 C380.065,392.395 383.287,402.718 386.587,413.348 C393.022,434.058 400.802,459.02 423.465,479.3 L463.957,447.228 C437.732,434.225 419.842,418.07 403.625,404.82 C392.777,395.958 383.665,388.53 375.072,384.253" fill="#ADADA9"/>
    <path d="M580.812,317.022 L551.292,317.467 C540.167,326.128 445.2,342.768 384.485,369.608 C394.208,374.823 403.82,382.668 414.557,391.44 C431.42,405.215 451.573,421.663 480.115,434.427 L581.278,354.3 L581.05,354.15 L580.812,317.022" fill="#ADADA9"/>
    <path d="M370.088,418.47 C367.217,409.23 364.853,401.938 362.19,396.543 C361.233,397.708 360.233,398.835 359.185,399.91 L348.87,389.865 C349.685,389.03 350.455,388.148 351.198,387.24 C257.967,440.74 152.465,497.11 152.465,497.11 C152.545,496.95 152.643,496.77 152.728,496.608 C143.46,502.325 132.96,506.348 121.45,508.458 L105.885,511.76 L341.068,544.565 L407.842,491.675 C382.438,469.638 377.277,441.625 370.088,418.47" fill="#ADADA9"/>
    <path d="M147.175,480.777 C139.73,486.188 130.665,488.885 121.707,489.49 C112.705,490.155 103.722,488.87 95.145,486.517 C77.967,481.737 62.197,472.818 48.692,461.443 C35.222,450.05 23.965,435.732 17.57,419.295 C24.467,435.525 36.05,449.36 49.58,460.37 C63.18,471.33 78.947,479.757 95.797,484.042 C104.205,486.142 112.915,487.185 121.467,486.46 C129.995,485.77 138.402,483.102 145.172,478.037 C148.577,475.552 151.497,472.452 153.942,469.022 C156.415,465.555 158.16,461.785 159.825,457.688 C162.935,449.753 164.982,441.227 166.185,432.667 C168.587,415.51 168.072,397.9 164.767,380.92 C161.51,363.96 155.275,347.473 145.747,333.147 C140.977,326.012 135.355,319.44 128.857,313.957 C122.372,308.527 114.942,304.085 106.895,302.122 C104.897,301.598 102.857,301.292 100.825,301.107 C99.932,301.007 98.685,300.995 97.635,300.93 C96.607,300.952 95.607,300.908 94.56,300.97 C90.392,301.13 86.275,301.802 82.38,303.117 C74.555,305.69 67.82,310.93 62.952,317.667 C58.037,324.397 54.825,332.385 52.8,340.635 C50.79,348.91 49.905,357.5 49.91,366.082 C49.95,374.667 50.857,383.275 52.747,391.64 C54.655,399.992 57.46,408.128 61.807,415.397 C66.175,422.865 71.105,429.992 76.777,436.443 C82.442,442.857 88.855,448.688 96.17,452.8 C103.365,456.895 111.927,459.175 119.367,456.6 C123.032,455.318 126.255,452.908 128.71,449.745 C131.177,446.587 132.967,442.81 134.197,438.827 C136.692,430.822 137.14,422.145 136.87,413.552 C136.555,404.955 135.25,396.367 133.017,388.033 C130.782,379.702 127.622,371.598 123.477,364.05 C119.315,356.55 114.172,349.43 107.557,344.177 C104.265,341.6 100.53,339.52 96.59,338.887 C92.667,338.237 88.672,339.372 85.675,342.085 C82.592,344.75 80.52,348.427 78.76,352.425 C77.007,356.335 75.56,360.412 74.495,364.592 C70.257,381.122 72.405,399.297 79.977,414.67 L134.442,394.885 L79.855,416.175 L79.297,416.392 L79.02,415.878 C70.635,400.175 67.887,381.48 71.877,363.965 C72.865,359.598 74.265,355.318 76.065,351.185 C77.772,347.155 80.002,342.885 83.582,339.707 C87.055,336.405 92.3,334.783 97.08,335.555 C101.887,336.262 106.095,338.6 109.735,341.35 C117.022,346.967 122.47,354.352 126.94,362.105 C131.382,369.905 134.782,378.255 137.235,386.867 C139.682,395.487 141.177,404.372 141.645,413.348 C142.07,422.28 141.607,431.44 138.927,440.297 C137.585,444.702 135.597,449.035 132.657,452.83 C129.75,456.632 125.69,459.757 121.04,461.39 C116.382,463.017 111.355,463.132 106.707,462.247 C102.03,461.367 97.67,459.565 93.645,457.337 C85.58,452.84 78.782,446.662 72.8,439.96 C66.817,433.22 61.672,425.835 57.127,418.152 C52.402,410.322 49.37,401.625 47.335,392.875 C45.307,384.087 44.317,375.107 44.235,366.112 C44.197,357.117 45.03,348.07 47.247,339.265 C49.45,330.487 52.93,321.842 58.442,314.352 C63.885,306.865 71.697,300.805 80.652,297.922 C85.102,296.447 89.75,295.717 94.367,295.562 C95.515,295.5 96.715,295.55 97.887,295.542 C99.03,295.612 99.985,295.612 101.28,295.745 C103.617,295.965 105.942,296.332 108.195,296.93 C117.282,299.207 125.312,304.125 132.235,309.965 C139.157,315.865 145.04,322.822 150,330.322 C159.902,345.365 166.255,362.467 169.547,380.02 C172.722,397.6 172.98,415.65 170.265,433.28 C168.885,442.11 166.705,450.77 163.267,459.172 C161.577,463.19 159.555,467.432 156.85,471.1 C154.145,474.787 150.912,478.122 147.175,480.777 M414.557,391.44 C403.82,382.667 394.207,374.822 384.485,369.607 C445.2,342.767 540.167,326.128 551.292,317.467 C577.767,279.88 552.307,173.732 485.55,176.677 C486.247,177.16 486.937,177.642 487.677,178.125 C489.572,179.592 491.657,181.02 493.627,182.732 C494.622,183.572 495.635,184.425 496.66,185.287 C497.637,186.202 498.627,187.127 499.625,188.062 C501.665,189.877 503.477,192 505.4,193.985 C507.16,196.132 509.027,198.18 510.585,200.425 C512.177,202.642 513.732,204.822 514.97,207.112 C516.362,209.302 517.387,211.6 518.36,213.765 C519.462,215.87 519.932,218.107 520.642,220.035 C521.007,221.005 521.222,221.97 521.37,222.905 C521.547,223.827 521.712,224.7 521.87,225.525 C522.267,227.155 522.292,228.62 522.332,229.817 C522.435,232.205 522.495,233.572 522.495,233.572 C522.495,233.572 522.345,232.215 522.085,229.842 C521.967,228.655 521.85,227.217 521.347,225.625 C521.14,224.827 520.92,223.975 520.688,223.08 C520.482,222.177 520.212,221.245 519.787,220.312 C518.96,218.457 518.372,216.33 517.152,214.335 C516.062,212.285 514.927,210.125 513.425,208.082 C512.082,205.94 510.427,203.917 508.742,201.872 C507.097,199.802 505.142,197.927 503.312,195.97 C501.31,194.162 499.442,192.235 497.347,190.61 C496.327,189.772 495.31,188.942 494.31,188.12 C493.267,187.352 492.235,186.597 491.222,185.85 C489.222,184.327 487.122,183.092 485.222,181.807 C483.225,180.682 481.41,179.477 479.617,178.622 C479.61,178.62 479.605,178.615 479.597,178.612 L458.682,187.067 C459.312,187.497 459.935,187.932 460.6,188.37 C462.447,189.782 464.465,191.172 466.382,192.82 C467.35,193.63 468.33,194.455 469.322,195.29 C470.275,196.172 471.24,197.067 472.215,197.967 C474.182,199.735 475.972,201.755 477.835,203.685 C479.56,205.742 481.372,207.725 482.905,209.885 C484.475,212.01 485.977,214.127 487.217,216.32 C488.577,218.435 489.607,220.637 490.575,222.725 C491.637,224.77 492.177,226.895 492.86,228.772 C493.217,229.715 493.447,230.652 493.61,231.557 C493.787,232.407 493.952,233.22 494.097,233.99 C494.102,234.025 494.107,234.057 494.117,234.09 C494.495,235.665 494.572,237.072 494.6,238.232 C494.705,240.545 494.765,241.87 494.765,241.87 C494.765,241.87 494.612,240.555 494.355,238.257 C494.25,237.107 494.075,235.725 493.595,234.185 C493.395,233.415 493.17,232.597 492.93,231.735 C492.71,230.865 492.427,229.97 492.01,229.065 C491.215,227.267 490.557,225.245 489.38,223.315 C488.295,221.347 487.155,219.277 485.687,217.31 C484.345,215.267 482.742,213.307 481.08,211.352 C479.46,209.37 477.56,207.557 475.762,205.687 C473.827,203.937 471.977,202.107 469.95,200.525 C468.95,199.72 467.955,198.917 466.975,198.125 C465.97,197.39 464.972,196.662 463.992,195.952 C462.03,194.482 459.99,193.275 458.127,192.04 C456.4,191.067 454.81,190.06 453.257,189.26 L432.252,197.752 C432.677,198.04 433.087,198.322 433.527,198.615 C435.325,199.97 437.27,201.327 439.137,202.912 C440.08,203.687 441.027,204.482 441.985,205.292 C442.915,206.142 443.852,207.005 444.802,207.87 C446.702,209.592 448.47,211.507 450.265,213.382 C451.96,215.352 453.717,217.272 455.222,219.345 C456.77,221.377 458.225,223.432 459.465,225.525 C460.79,227.567 461.83,229.68 462.792,231.685 C463.812,233.667 464.427,235.685 465.08,237.507 C465.427,238.432 465.672,239.335 465.85,240.207 C466.037,241.027 466.207,241.81 466.342,242.555 C466.35,242.59 466.357,242.62 466.362,242.655 C466.722,244.175 466.85,245.52 466.867,246.647 C466.972,248.887 467.032,250.167 467.032,250.167 C467.032,250.167 466.882,248.897 466.62,246.672 C466.527,245.56 466.3,244.232 465.84,242.742 C465.647,242 465.42,241.217 465.17,240.395 C464.935,239.557 464.64,238.692 464.235,237.817 C463.472,236.075 462.74,234.162 461.607,232.295 C460.527,230.407 459.382,228.432 457.952,226.54 C456.605,224.592 455.055,222.697 453.415,220.835 C451.825,218.932 449.982,217.187 448.215,215.402 C446.342,213.705 444.512,211.977 442.555,210.445 C441.572,209.67 440.602,208.895 439.637,208.13 C438.67,207.422 437.71,206.73 436.76,206.052 C434.84,204.64 432.855,203.457 431.03,202.275 C429.572,201.45 428.21,200.632 426.882,199.922 L405.825,208.435 C406.035,208.577 406.235,208.715 406.447,208.857 C408.202,210.16 410.077,211.477 411.89,213.002 C412.807,213.745 413.722,214.512 414.647,215.295 C415.552,216.112 416.467,216.945 417.392,217.775 C419.22,219.452 420.967,221.262 422.697,223.08 C424.362,224.967 426.065,226.817 427.54,228.805 C429.067,230.745 430.472,232.735 431.71,234.732 C433.002,236.7 434.05,238.72 435.007,240.645 C435.987,242.57 436.675,244.475 437.297,246.245 C437.637,247.142 437.897,248.017 438.09,248.862 C438.287,249.647 438.46,250.402 438.59,251.122 C438.597,251.152 438.602,251.185 438.61,251.22 C438.95,252.687 439.127,253.972 439.137,255.06 C439.24,257.225 439.3,258.465 439.3,258.465 C439.3,258.465 439.152,257.237 438.89,255.09 C438.807,254.012 438.525,252.74 438.085,251.302 C437.9,250.587 437.667,249.837 437.412,249.052 C437.165,248.245 436.852,247.415 436.46,246.567 C435.725,244.885 434.925,243.077 433.832,241.275 C432.76,239.467 431.607,237.585 430.212,235.765 C428.87,233.92 427.37,232.085 425.75,230.315 C424.187,228.497 422.4,226.82 420.665,225.117 C418.857,223.475 417.045,221.855 415.162,220.365 C414.197,219.617 413.247,218.867 412.305,218.137 C411.37,217.46 410.45,216.792 409.53,216.155 C407.647,214.792 405.72,213.642 403.937,212.507 C402.745,211.832 401.62,211.185 400.52,210.58 L379.397,219.117 C381.092,220.357 382.89,221.64 384.647,223.095 C385.535,223.802 386.417,224.542 387.31,225.295 C388.192,226.082 389.077,226.88 389.98,227.68 C391.737,229.307 393.465,231.015 395.132,232.78 C396.762,234.58 398.41,236.36 399.857,238.265 C401.365,240.112 402.717,242.042 403.957,243.94 C405.215,245.83 406.27,247.76 407.222,249.605 C408.162,251.465 408.925,253.265 409.517,254.985 C409.85,255.855 410.12,256.7 410.33,257.512 C410.535,258.267 410.712,258.99 410.837,259.685 C410.842,259.72 410.85,259.75 410.857,259.783 C411.177,261.195 411.407,262.425 411.405,263.475 C411.51,265.568 411.57,266.762 411.57,266.762 C411.57,266.762 411.42,265.58 411.16,263.507 C411.087,262.462 410.75,261.247 410.332,259.862 C410.155,259.17 409.92,258.455 409.655,257.707 C409.39,256.938 409.067,256.14 408.682,255.317 C407.98,253.687 407.105,251.992 406.057,250.255 C404.992,248.527 403.835,246.74 402.475,244.995 C401.132,243.245 399.682,241.477 398.085,239.795 C396.55,238.062 394.82,236.452 393.115,234.835 C391.37,233.247 389.58,231.725 387.765,230.282 C386.822,229.567 385.892,228.847 384.97,228.142 C384.072,227.495 383.185,226.86 382.3,226.252 C380.457,224.95 378.587,223.825 376.842,222.742 C375.917,222.217 375.032,221.715 374.165,221.235 L352.942,229.812 C354.402,230.865 355.907,231.965 357.402,233.185 C358.265,233.857 359.115,234.572 359.972,235.3 C360.83,236.052 361.692,236.82 362.57,237.585 C364.255,239.165 365.96,240.767 367.567,242.48 C369.162,244.187 370.755,245.907 372.175,247.722 C373.66,249.48 374.962,251.35 376.202,253.145 C377.43,254.965 378.49,256.797 379.44,258.565 C380.337,260.367 381.17,262.055 381.735,263.723 C382.057,264.57 382.342,265.385 382.57,266.165 C382.785,266.887 382.967,267.582 383.085,268.253 C383.09,268.285 383.095,268.315 383.102,268.345 C383.405,269.707 383.685,270.878 383.675,271.887 C383.78,273.91 383.84,275.062 383.84,275.062 C383.84,275.062 383.69,273.92 383.427,271.922 C383.365,270.917 382.975,269.755 382.58,268.42 C382.407,267.757 382.172,267.08 381.897,266.367 C381.617,265.625 381.282,264.862 380.907,264.07 C380.235,262.495 379.287,260.91 378.287,259.235 C377.227,257.59 376.062,255.892 374.735,254.222 C373.392,252.572 372,250.867 370.42,249.275 C368.912,247.627 367.237,246.08 365.565,244.55 C363.885,243.017 362.115,241.597 360.37,240.202 C359.445,239.517 358.535,238.822 357.635,238.147 C356.775,237.53 355.925,236.927 355.067,236.355 C353.267,235.102 351.452,234.007 349.747,232.975 C349.085,232.6 348.445,232.24 347.81,231.887 L326.492,240.507 C327.7,241.377 328.927,242.285 330.157,243.275 C330.99,243.917 331.81,244.6 332.635,245.302 C333.467,246.022 334.305,246.76 335.155,247.49 C336.772,249.025 338.457,250.52 339.997,252.177 C341.562,253.8 343.1,255.452 344.492,257.182 C345.957,258.848 347.207,260.65 348.45,262.352 C349.642,264.095 350.712,265.84 351.655,267.522 C352.512,269.267 353.417,270.842 353.952,272.457 C354.267,273.283 354.567,274.065 354.81,274.82 C354.942,275.227 355.02,275.615 355.12,276.007 C363.162,288.225 369.492,302.283 373.447,317.48 C377.945,334.765 378.675,351.315 375.927,365.795 C371.372,364.162 366.72,363.167 361.847,363.03 C364.162,350.705 363.472,336.322 359.512,321.105 C349.98,284.477 325.545,255.372 297.257,246.952 L297.28,246.872 L294.075,247.192 C296.827,248.862 299.847,250.94 302.912,253.365 C304.542,254.6 306.107,256.022 307.747,257.392 C309.29,258.882 310.952,260.277 312.432,261.872 C313.965,263.415 315.445,264.997 316.81,266.645 C318.252,268.215 319.455,269.957 320.697,271.557 C321.855,273.227 322.93,274.88 323.87,276.482 C324.687,278.165 325.665,279.632 326.172,281.195 C326.752,282.712 327.357,284.07 327.58,285.385 C327.84,286.675 328.242,287.757 328.21,288.717 C328.317,290.59 328.377,291.658 328.377,291.658 C328.377,291.658 328.225,290.602 327.965,288.753 C327.922,287.818 327.427,286.767 327.07,285.535 C326.752,284.283 326.04,282.997 325.355,281.57 C324.747,280.112 323.655,278.74 322.74,277.19 C321.695,275.712 320.515,274.2 319.26,272.68 C317.917,271.223 316.625,269.647 315.092,268.235 C313.64,266.757 312.075,265.342 310.467,263.98 C308.915,262.56 307.18,261.342 305.58,260.037 C303.887,258.848 302.27,257.607 300.607,256.557 C297.332,254.385 294.145,252.58 291.367,251.222 C289.995,250.492 288.68,250.03 287.552,249.51 C286.44,249.08 285.535,248.82 284.772,248.535 C284.345,248.415 283.937,248.32 283.577,248.24 L273.33,249.265 C273.34,249.27 273.35,249.272 273.36,249.28 C273.455,249.34 273.547,249.4 273.645,249.46 C274.362,249.892 275.1,250.347 275.855,250.827 C276.672,251.362 277.505,251.927 278.355,252.515 C280.167,253.75 281.997,255.165 283.867,256.652 C284.765,257.35 285.635,258.11 286.515,258.878 C287.41,259.652 288.305,260.447 289.2,261.253 C290.05,262.092 290.93,262.915 291.8,263.753 C292.485,264.385 293.702,265.69 294.337,266.378 C295.185,267.255 295.995,268.162 296.795,269.077 C297.582,269.987 298.37,270.895 299.1,271.835 C299.875,272.753 300.6,273.702 301.297,274.658 C301.98,275.595 302.627,276.542 303.287,277.45 C304.555,279.337 305.685,281.227 306.712,283.033 C307.6,284.925 308.64,286.598 309.215,288.337 C309.855,290.04 310.515,291.565 310.792,293.025 C311.11,294.465 311.552,295.675 311.57,296.742 C311.77,298.83 311.882,300.022 311.882,300.022 C311.882,300.022 311.68,298.842 311.327,296.783 C311.237,295.74 310.697,294.562 310.282,293.18 C309.912,291.777 309.142,290.32 308.395,288.71 C307.717,287.068 306.562,285.487 305.57,283.725 C304.432,282.037 303.2,280.283 301.832,278.54 C301.092,277.677 300.372,276.77 299.612,275.88 C298.89,275.04 298.145,274.2 297.352,273.395 C296.545,272.495 295.675,271.64 294.807,270.785 C294,269.99 293.185,269.202 292.337,268.445 C291.63,267.8 290.315,266.575 289.56,265.99 C288.72,265.302 287.882,264.625 287.07,263.935 C286.952,263.845 286.832,263.753 286.715,263.662 C285.747,262.915 284.782,262.18 283.82,261.467 C283.105,260.943 282.4,260.427 281.685,259.943 C281.425,259.762 281.165,259.582 280.905,259.408 C278.977,258.12 277.107,256.912 275.287,255.882 C274.357,255.347 273.455,254.847 272.582,254.375 C272.245,254.202 271.915,254.035 271.587,253.87 C271.037,253.575 270.495,253.312 269.972,253.07 C269.065,252.642 268.2,252.287 267.407,251.92 C266.65,251.615 265.972,251.375 265.36,251.157 C265.005,251.032 264.67,250.91 264.36,250.785 C264.02,250.682 263.69,250.587 263.385,250.505 C263.107,250.432 262.91,250.385 262.672,250.325 L252.527,251.34 C252.785,251.487 253.032,251.612 253.287,251.772 C253.39,251.837 253.495,251.902 253.597,251.967 C254.387,252.442 255.202,252.945 256.04,253.467 C256.942,254.072 257.867,254.705 258.81,255.367 C260.797,256.715 262.777,258.305 264.822,259.938 C265.81,260.725 266.757,261.585 267.727,262.443 C268.707,263.31 269.69,264.195 270.655,265.112 C271.587,266.052 272.545,266.98 273.495,267.922 C274.065,268.45 275.715,270.307 276.242,270.88 C277.167,271.865 278.035,272.895 278.895,273.922 C279.745,274.95 280.607,275.96 281.385,277.025 C282.21,278.062 282.99,279.132 283.745,280.195 C284.485,281.242 285.172,282.315 285.877,283.337 C287.255,285.445 288.435,287.572 289.557,289.58 C290.515,291.682 291.615,293.562 292.255,295.482 C292.957,297.37 293.675,299.055 294.005,300.667 C294.38,302.255 294.865,303.595 294.932,304.767 C295.222,307.072 295.39,308.385 295.39,308.385 C295.39,308.385 295.132,307.085 294.687,304.812 C294.547,303.662 293.967,302.357 293.5,300.822 C293.07,299.272 292.242,297.645 291.435,295.848 C290.687,294.02 289.47,292.235 288.405,290.257 C287.175,288.362 285.885,286.367 284.405,284.402 C283.622,283.425 282.862,282.4 282.05,281.4 C281.262,280.443 280.457,279.485 279.61,278.547 C278.757,277.535 277.815,276.577 276.892,275.61 C276.017,274.695 275.14,273.783 274.21,272.912 C273.62,272.375 271.872,270.628 271.24,270.14 C270.337,269.367 269.437,268.605 268.56,267.83 C268.43,267.727 268.307,267.625 268.18,267.525 C267.15,266.667 266.107,265.848 265.065,265.055 C264.292,264.465 263.532,263.88 262.76,263.33 C262.485,263.128 262.21,262.932 261.93,262.737 C259.835,261.305 257.825,259.922 255.83,258.777 C254.825,258.182 253.845,257.617 252.902,257.082 C252.53,256.89 252.167,256.7 251.807,256.517 C251.212,256.197 250.63,255.907 250.062,255.632 C249.08,255.145 248.132,254.735 247.26,254.332 C246.452,253.995 245.717,253.725 245.047,253.467 C244.66,253.322 244.295,253.182 243.945,253.04 C243.585,252.917 243.237,252.807 242.91,252.705 C242.495,252.592 242.157,252.5 241.822,252.407 L231.737,253.412 C232.227,253.692 232.717,253.95 233.215,254.265 C233.327,254.332 233.44,254.402 233.552,254.475 C234.417,254.995 235.31,255.54 236.225,256.11 C237.21,256.783 238.225,257.487 239.26,258.217 C241.43,259.682 243.555,261.443 245.775,263.225 C246.852,264.095 247.88,265.057 248.94,266.007 C250.007,266.965 251.075,267.943 252.11,268.973 C253.122,270.015 254.157,271.047 255.19,272.09 C255.645,272.512 257.727,274.922 258.15,275.382 C259.15,276.47 260.072,277.622 260.995,278.765 C261.902,279.912 262.845,281.03 263.672,282.217 C264.542,283.378 265.38,284.557 266.19,285.73 C266.987,286.895 267.715,288.087 268.467,289.23 C269.957,291.55 271.187,293.917 272.397,296.132 C273.427,298.44 274.59,300.525 275.297,302.625 C276.055,304.695 276.832,306.552 277.222,308.31 C277.647,310.042 278.177,311.515 278.292,312.795 C278.675,315.31 278.895,316.747 278.895,316.747 C278.895,316.747 278.587,315.327 278.052,312.84 C277.86,311.585 277.237,310.15 276.712,308.465 C276.23,306.767 275.342,304.97 274.472,302.985 C273.655,300.975 272.38,298.98 271.237,296.79 C269.915,294.685 268.57,292.45 266.975,290.267 C266.15,289.172 265.352,288.033 264.485,286.92 C263.637,285.845 262.77,284.77 261.867,283.707 C260.972,282.575 259.957,281.52 258.98,280.432 C258.035,279.4 257.095,278.357 256.082,277.38 C255.61,276.947 253.425,274.682 252.92,274.29 C251.955,273.432 250.99,272.585 250.047,271.727 C249.915,271.61 249.78,271.497 249.645,271.382 C248.555,270.422 247.432,269.517 246.312,268.64 C245.48,267.987 244.667,267.33 243.837,266.715 C243.545,266.495 243.252,266.277 242.96,266.068 C240.695,264.487 238.542,262.932 236.375,261.672 C235.292,261.017 234.237,260.39 233.217,259.79 C232.815,259.58 232.42,259.37 232.025,259.165 C231.39,258.82 230.765,258.503 230.155,258.2 C229.092,257.645 228.067,257.182 227.112,256.742 C226.255,256.372 225.465,256.07 224.737,255.782 C224.315,255.615 223.915,255.455 223.535,255.295 C223.155,255.157 222.787,255.027 222.44,254.907 C221.902,254.75 221.427,254.612 221.005,254.482 L210.95,255.487 C211.675,255.885 212.405,256.285 213.14,256.757 C213.262,256.83 213.382,256.905 213.505,256.98 C214.445,257.547 215.412,258.14 216.407,258.753 C217.482,259.495 218.585,260.27 219.715,261.065 C222.065,262.645 224.337,264.58 226.73,266.51 C227.897,267.467 229.002,268.533 230.152,269.572 C231.305,270.62 232.46,271.69 233.562,272.83 C234.66,273.975 235.772,275.115 236.885,276.262 C237.227,276.577 239.74,279.542 240.057,279.885 C241.132,281.08 242.11,282.355 243.097,283.612 C244.065,284.878 245.082,286.098 245.957,287.408 C246.877,288.69 247.767,289.985 248.64,291.265 C249.49,292.547 250.257,293.86 251.057,295.117 C252.657,297.658 253.942,300.265 255.24,302.682 C256.342,305.202 257.562,307.492 258.34,309.767 C259.157,312.02 259.992,314.05 260.435,315.947 C260.917,317.832 261.487,319.432 261.652,320.82 C262.127,323.55 262.4,325.11 262.4,325.11 C262.4,325.11 262.04,323.57 261.412,320.87 C261.172,319.51 260.51,317.943 259.927,316.11 C259.385,314.26 258.442,312.292 257.512,310.12 C256.627,307.927 255.285,305.725 254.07,303.32 C252.652,301.015 251.255,298.533 249.545,296.13 C248.677,294.922 247.842,293.665 246.922,292.443 C246.012,291.25 245.085,290.055 244.127,288.862 C243.185,287.612 242.097,286.455 241.067,285.26 C240.052,284.102 239.05,282.932 237.955,281.845 C237.597,281.52 234.982,278.737 234.602,278.44 C233.572,277.492 232.545,276.56 231.535,275.622 C231.395,275.497 231.252,275.372 231.11,275.245 C229.96,274.18 228.757,273.19 227.56,272.225 C226.665,271.51 225.8,270.785 224.915,270.1 C224.607,269.862 224.297,269.625 223.987,269.397 C221.555,267.672 219.262,265.943 216.92,264.57 C215.76,263.85 214.627,263.16 213.535,262.497 C213.102,262.267 212.67,262.037 212.245,261.812 C211.565,261.445 210.897,261.095 210.247,260.762 C209.105,260.147 208.002,259.632 206.967,259.152 C206.06,258.753 205.212,258.417 204.427,258.095 C203.972,257.908 203.535,257.725 203.122,257.55 C202.722,257.392 202.332,257.245 201.967,257.107 C201.34,256.912 200.767,256.74 200.267,256.577 C200.247,256.57 200.23,256.565 200.207,256.557 L190.17,257.56 C191.122,258.072 192.095,258.622 193.067,259.25 C193.197,259.327 193.327,259.408 193.46,259.485 C194.47,260.1 195.517,260.737 196.592,261.397 C197.75,262.207 198.945,263.047 200.17,263.917 C202.695,265.612 205.115,267.717 207.685,269.792 C208.942,270.84 210.122,272.005 211.362,273.137 C212.605,274.275 213.847,275.438 215.02,276.693 C216.195,277.932 217.387,279.177 218.58,280.432 C218.807,280.642 221.752,284.158 221.962,284.387 C223.115,285.688 224.147,287.082 225.195,288.455 C226.222,289.84 227.322,291.167 228.245,292.6 C229.212,294.003 230.157,295.408 231.085,296.802 C231.992,298.2 232.802,299.635 233.647,301.012 C235.357,303.765 236.695,306.61 238.082,309.23 C239.257,311.96 240.537,314.457 241.382,316.91 C242.26,319.35 243.15,321.542 243.647,323.592 C244.187,325.622 244.8,327.35 245.015,328.845 C245.582,331.792 245.905,333.475 245.905,333.475 C245.905,333.475 245.492,331.81 244.772,328.902 C244.485,327.432 243.78,325.735 243.142,323.753 C242.545,321.757 241.542,319.62 240.552,317.26 C239.595,314.885 238.192,312.475 236.905,309.852 C235.395,307.337 233.94,304.615 232.117,301.992 C231.202,300.672 230.332,299.295 229.36,297.962 C228.387,296.655 227.397,295.337 226.385,294.02 C225.4,292.652 224.24,291.395 223.155,290.085 C222.07,288.807 221.007,287.507 219.825,286.31 C219.59,286.095 216.535,282.79 216.282,282.592 C215.19,281.562 214.102,280.54 213.025,279.52 C212.875,279.38 212.727,279.242 212.577,279.105 C211.362,277.935 210.08,276.86 208.807,275.81 C207.852,275.03 206.932,274.235 205.992,273.487 C205.667,273.225 205.342,272.975 205.012,272.727 C202.415,270.855 199.98,268.955 197.467,267.465 C196.227,266.682 195.02,265.932 193.852,265.205 C193.385,264.955 192.922,264.705 192.467,264.462 C191.742,264.068 191.03,263.693 190.337,263.33 C189.12,262.647 187.937,262.082 186.817,261.562 C185.862,261.135 184.96,260.76 184.117,260.408 C183.63,260.2 183.16,259.997 182.71,259.8 C182.29,259.63 181.882,259.465 181.495,259.31 C180.827,259.092 180.21,258.892 179.662,258.712 C179.577,258.685 179.502,258.658 179.422,258.632 L169.347,259.637 C170.542,260.267 171.76,260.945 172.995,261.74 C173.135,261.825 173.272,261.908 173.412,261.992 C174.5,262.652 175.62,263.335 176.777,264.04 C178.02,264.917 179.302,265.83 180.62,266.767 C183.327,268.575 185.892,270.855 188.637,273.08 C189.985,274.212 191.245,275.48 192.575,276.702 C193.9,277.932 195.232,279.185 196.472,280.55 C197.732,281.895 199,283.245 200.275,284.6 C200.39,284.705 203.762,288.775 203.867,288.89 C205.097,290.295 206.182,291.815 207.297,293.302 C208.382,294.802 209.557,296.235 210.53,297.792 C211.547,299.315 212.547,300.835 213.532,302.34 C214.495,303.85 215.347,305.405 216.237,306.9 C218.06,309.872 219.445,312.957 220.925,315.777 C222.172,318.717 223.515,321.422 224.422,324.052 C225.357,326.675 226.31,329.037 226.862,331.235 C227.455,333.412 228.11,335.27 228.375,336.867 C229.035,340.033 229.412,341.84 229.412,341.84 C229.412,341.84 228.947,340.052 228.135,336.932 C227.795,335.355 227.05,333.53 226.355,331.397 C225.702,329.253 224.642,326.943 223.59,324.397 C222.565,321.837 221.102,319.22 219.735,316.382 C218.132,313.662 216.627,310.7 214.687,307.852 C213.735,306.42 212.82,304.927 211.797,303.482 C210.76,302.06 209.71,300.617 208.642,299.175 C207.612,297.69 206.38,296.335 205.24,294.91 C204.087,293.515 202.96,292.085 201.695,290.775 C201.577,290.667 198.09,286.842 197.962,286.745 C196.807,285.628 195.655,284.52 194.515,283.417 L194.042,282.962 C192.767,281.688 191.407,280.527 190.055,279.395 C189.04,278.552 188.065,277.688 187.07,276.867 C186.727,276.592 186.387,276.32 186.037,276.057 C183.272,274.04 180.7,271.962 178.012,270.36 C176.692,269.517 175.41,268.7 174.17,267.912 C173.67,267.64 173.172,267.372 172.685,267.107 C171.917,266.69 171.165,266.285 170.43,265.895 C169.132,265.15 167.87,264.53 166.672,263.973 C165.665,263.512 164.707,263.107 163.807,262.72 C163.285,262.492 162.78,262.27 162.297,262.057 C161.857,261.867 161.43,261.685 161.022,261.512 C160.315,261.272 159.657,261.05 159.057,260.842 C158.917,260.797 158.782,260.75 158.65,260.705 L148.515,261.715 C149.952,262.46 151.427,263.265 152.922,264.232 C154.217,265.017 155.567,265.837 156.965,266.682 C158.29,267.63 159.662,268.61 161.075,269.617 C163.96,271.542 166.672,273.995 169.592,276.365 C171.027,277.585 172.367,278.955 173.787,280.27 C175.2,281.587 176.62,282.935 177.93,284.41 C179.267,285.855 180.615,287.31 181.97,288.77 L185.775,293.395 C187.082,294.902 188.222,296.545 189.397,298.145 C190.545,299.77 191.797,301.302 192.817,302.982 C193.882,304.628 194.937,306.26 195.98,307.875 C197,309.5 197.89,311.18 198.83,312.792 C200.76,315.98 202.197,319.3 203.767,322.327 C205.085,325.477 206.487,328.385 207.465,331.197 C208.46,334 209.467,336.533 210.077,338.875 C210.725,341.2 211.422,343.19 211.737,344.895 C212.487,348.272 212.917,350.205 212.917,350.205 C212.917,350.205 212.4,348.297 211.497,344.96 C211.107,343.275 210.32,341.322 209.57,339.042 C208.862,336.747 207.745,334.267 206.632,331.535 C205.535,328.792 204.007,325.965 202.57,322.915 C200.875,319.987 199.312,316.78 197.26,313.717 C196.26,312.17 195.31,310.557 194.232,309.003 C193.135,307.462 192.022,305.905 190.902,304.332 C189.827,302.727 188.522,301.275 187.327,299.737 C186.105,298.217 184.917,296.662 183.567,295.24 L179.645,290.895 C178.26,289.53 176.877,288.172 175.507,286.825 C174.172,285.445 172.732,284.197 171.3,282.982 C169.862,281.77 168.51,280.5 167.065,279.385 C164.132,277.223 161.417,274.975 158.557,273.255 C157.162,272.35 155.802,271.47 154.49,270.62 C153.117,269.875 151.795,269.152 150.522,268.457 C148.007,266.982 145.61,265.957 143.497,265.033 C142.445,264.562 141.46,264.122 140.552,263.715 C139.58,263.372 138.69,263.06 137.882,262.777 L105.885,265.97 C105.885,265.97 154.595,274.087 174.04,310.607 C184.475,330.202 189.78,348.938 191.632,366.585 C176.597,309.47 130.64,270.36 82.265,276.745 C32.08,283.365 13.13,333.642 25.617,398.527 C26.42,402.69 0.692,407.03 1.26,411.335 C10.135,478.592 79.365,514.71 117.885,509.072 C119.087,508.895 120.265,508.675 121.447,508.457 C132.96,506.35 143.457,502.325 152.725,496.607 C152.642,496.77 152.545,496.95 152.465,497.11 C152.465,497.11 257.965,440.74 351.197,387.24 C351.54,386.827 351.852,386.385 352.177,385.957 C356.407,387.515 359.465,391.025 362.19,396.545 C364.855,401.938 367.215,409.23 370.087,418.47 C377.277,441.625 382.437,469.637 407.842,491.675 C425.685,507.158 453.505,519.693 499.097,525.51 L513.51,514.42 C469.282,508.777 441.607,495.535 423.465,479.3 C400.8,459.02 393.022,434.06 386.587,413.348 C383.287,402.717 380.062,392.395 375.072,384.253 C383.665,388.53 392.777,395.957 403.625,404.82 C419.842,418.07 437.732,434.225 463.955,447.227 C489.667,459.973 523.387,469.68 571.45,470.612 L581.697,455.318 C538.472,454.475 505.877,445.95 480.115,434.427 C451.572,421.662 431.42,405.215 414.557,391.44 M324.992,244.622 C325.932,245.202 326.88,245.807 327.837,246.455 C328.66,246.99 329.475,247.565 330.297,248.152 C331.182,248.8 332.07,249.465 332.975,250.117 C334.647,251.467 336.4,252.79 338.015,254.265 C339.657,255.715 341.277,257.193 342.755,258.755 C344.31,260.255 345.655,261.895 347,263.45 C348.287,265.045 349.46,266.65 350.51,268.212 C351.472,269.825 352.492,271.305 353.13,272.82 C353.267,273.107 353.377,273.37 353.51,273.647 C345.412,261.922 335.727,251.995 324.992,244.622 M1159.58,161.76 L1070.843,181.712 C1032.88,190.33 994.827,198.54 956.817,206.95 L842.762,232.045 L842.055,232.197 L841.357,231.997 L728.397,199.35 C690.755,188.422 653.057,177.695 615.477,166.557 L502.667,133.39 C465.12,122.132 427.52,111.062 390.022,99.64 C427.88,109.812 465.635,120.342 503.442,130.685 L616.695,162.31 C654.467,172.775 692.125,183.642 729.84,194.315 L842.247,226.262 L955.705,201.835 C993.767,193.682 1031.79,185.332 1069.902,177.392 L1151.335,160.255 C1154.24,160.782 1156.985,161.282 1159.58,161.76 M1080.715,323.48 C1083.83,322.112 1085.492,321.382 1085.492,321.382 C1085.492,321.382 1083.877,322.207 1080.852,323.76 C1077.802,325.26 1073.435,327.717 1067.655,330.367 C1061.828,332.9 1054.885,336.322 1046.583,339.457 C1038.395,342.867 1028.948,346.185 1018.552,349.55 C1013.322,351.1 1007.89,352.805 1002.22,354.405 C996.517,355.867 990.647,357.5 984.557,358.955 C972.362,361.79 959.432,364.557 945.912,366.545 C942.535,367.055 939.127,367.568 935.695,368.08 C932.262,368.568 928.785,368.932 925.302,369.367 C918.325,370.292 911.24,370.902 904.09,371.552 C896.95,372.242 889.725,372.555 882.49,373.065 C875.232,373.29 867.955,373.762 860.665,373.783 C846.092,374.005 831.522,373.54 817.2,372.882 C802.885,372.022 788.805,371 775.247,369.36 C768.455,368.662 761.807,367.68 755.305,366.76 C748.825,365.637 742.46,364.727 736.322,363.485 C724.002,361.272 712.477,358.545 701.88,355.92 C691.312,353.15 681.705,350.297 673.355,347.27 C669.147,345.872 665.315,344.232 661.72,342.897 C658.2,341.357 654.93,340.033 652.062,338.642 C646.297,335.93 641.967,333.357 639.102,331.537 C636.3,329.61 634.805,328.582 634.805,328.582 C634.805,328.582 636.357,329.517 639.272,331.277 C642.24,332.952 646.688,335.152 652.517,337.625 C655.42,338.878 658.73,340.05 662.285,341.417 C665.92,342.587 669.777,344.045 674.025,345.245 C678.24,346.527 682.745,347.827 687.54,349.033 C692.302,350.35 697.38,351.492 702.642,352.783 C713.237,355.102 724.745,357.497 737.037,359.365 C749.307,361.342 762.315,362.965 775.79,364.402 C789.265,365.91 803.25,366.797 817.457,367.522 C831.677,368.05 846.137,368.382 860.582,368.03 C867.81,368.05 875.027,367.665 882.222,367.5 C889.405,367.06 896.575,366.815 903.66,366.193 C910.75,365.612 917.787,365.072 924.705,364.22 C928.167,363.82 931.617,363.487 935.025,363.037 C938.432,362.557 941.815,362.08 945.167,361.607 C958.572,359.655 971.46,357.337 983.637,354.857 C989.712,353.58 995.575,352.117 1001.277,350.822 C1006.945,349.392 1012.38,347.842 1017.62,346.447 C1028.002,343.322 1037.537,340.457 1045.833,337.45 C1054.225,334.7 1061.275,331.607 1067.203,329.342 C1073.065,326.925 1077.585,324.818 1080.715,323.48 M1208.102,331.325 C1209.517,331.275 1210.847,330.975 1212.137,330.848 C1213.425,330.667 1214.647,330.533 1215.782,330.412 C1218.02,329.97 1219.887,329.598 1221.193,329.335 C1222.512,329.085 1223.292,328.975 1223.292,328.975 C1223.292,328.975 1222.607,329.322 1221.372,329.867 C1220.752,330.135 1219.997,330.46 1219.13,330.832 C1218.255,331.197 1217.282,331.672 1216.17,332.02 C1215.747,332.137 1215.25,332.257 1214.8,332.378 C1214.735,332.26 1214.675,332.135 1214.607,332.017 L1213.407,332.735 C1213.107,332.81 1212.845,332.89 1212.53,332.962 C1211.27,333.227 1209.96,333.672 1208.557,333.812 C1208.425,333.477 1208.312,333.112 1208.175,332.785 L1204.552,334.272 C1204.34,334.295 1204.145,334.327 1203.932,334.345 C1203.23,334.44 1202.517,334.475 1201.802,334.495 C1201.762,334.285 1201.73,334.06 1201.688,333.85 L1198.407,334.505 C1197.14,334.485 1195.875,334.492 1194.632,334.365 C1193.102,334.21 1191.602,333.977 1190.155,333.795 C1188.698,333.68 1187.335,333.185 1186.032,332.895 C1184.727,332.545 1183.505,332.305 1182.395,331.787 C1181.28,331.35 1180.29,330.908 1179.422,330.517 C1178.535,330.18 1177.925,329.61 1177.34,329.277 C1176.218,328.537 1175.595,328.075 1175.595,328.075 C1175.595,328.075 1176.335,328.312 1177.602,328.787 C1178.237,328.987 1178.968,329.425 1179.895,329.565 C1180.805,329.75 1181.818,329.95 1182.885,330.215 C1183.93,330.527 1185.198,330.582 1186.458,330.795 C1187.747,330.94 1189.065,331.242 1190.485,331.287 C1191.89,331.387 1193.343,331.455 1194.81,331.592 C1196.282,331.712 1197.79,331.62 1199.287,331.642 C1200.787,331.667 1202.292,331.74 1203.762,331.568 C1205.235,331.445 1206.693,331.405 1208.102,331.325 M1204.17,172.157 L1348.992,138.517 L1348.992,116.917 L846.47,3.165 L362.665,92.44 L362.665,116.917 L617.725,191.44 C616.19,194.48 614.485,198.095 612.72,202.255 C613.407,202.575 614.082,202.892 614.787,203.21 C619.527,205.4 624.675,207.53 629.877,209.55 C632.5,210.482 635.107,211.507 637.717,212.355 C640.335,213.167 642.89,214.115 645.42,214.77 C647.947,215.44 650.372,216.242 652.725,216.72 C655.07,217.232 657.282,217.822 659.355,218.18 C661.43,218.537 663.33,218.86 665.02,219.152 C666.71,219.435 668.2,219.512 669.425,219.665 C671.882,219.922 673.287,220.07 673.287,220.07 C673.287,220.07 671.875,220.1 669.405,220.16 C668.17,220.165 666.657,220.277 664.932,220.21 C663.205,220.137 661.252,220.055 659.125,219.967 C656.992,219.875 654.707,219.567 652.265,219.352 C649.815,219.17 647.285,218.68 644.63,218.33 C641.967,217.99 639.282,217.37 636.51,216.88 C633.742,216.357 630.977,215.665 628.18,215.055 C622.635,213.682 617.105,212.182 611.985,210.567 C611.205,210.33 610.452,210.087 609.688,209.845 C608.557,212.852 607.438,216.07 606.35,219.472 C607.637,220.112 608.947,220.757 610.29,221.41 C613.115,222.672 616,224.1 619.012,225.34 C622.017,226.607 625.065,227.927 628.18,229.067 L632.827,230.842 C634.395,231.377 635.952,231.907 637.5,232.435 C640.587,233.537 643.675,234.45 646.675,235.315 C649.657,236.252 652.587,236.977 655.375,237.645 C658.155,238.357 660.795,238.987 663.262,239.415 C665.727,239.89 667.985,240.322 669.99,240.707 C672.01,240.985 673.772,241.23 675.222,241.43 C678.135,241.83 679.797,242.06 679.797,242.06 C679.797,242.06 678.12,242.01 675.185,241.922 C673.712,241.877 671.922,241.825 669.872,241.765 C667.827,241.595 665.517,241.405 663.002,241.195 C660.47,241.032 657.752,240.685 654.88,240.27 C651.997,239.897 648.955,239.482 645.845,238.865 C642.72,238.315 639.485,237.727 636.242,236.947 C634.615,236.58 632.97,236.212 631.32,235.84 L626.405,234.547 C623.105,233.725 619.862,232.72 616.655,231.755 C613.435,230.817 610.342,229.682 607.3,228.695 C606.17,228.29 605.072,227.885 603.977,227.485 C603.09,230.71 602.257,234.07 601.49,237.565 C602.862,238.28 604.255,238.997 605.707,239.667 C608.938,241.247 612.3,242.842 615.785,244.32 C619.232,245.897 622.822,247.277 626.407,248.697 C629.967,250.19 633.655,251.31 637.227,252.617 C640.812,253.892 644.425,254.865 647.887,255.96 C651.35,257.055 654.777,257.79 657.995,258.66 C661.21,259.555 664.302,260.137 667.152,260.732 C670.007,261.295 672.612,261.938 674.952,262.28 C677.292,262.645 679.335,262.962 681.015,263.225 C684.382,263.75 686.307,264.05 686.307,264.05 C686.307,264.05 684.365,263.93 680.962,263.72 C679.257,263.612 677.19,263.482 674.817,263.332 C672.438,263.207 669.782,262.807 666.865,262.51 C663.955,262.177 660.782,261.878 657.475,261.28 C654.162,260.707 650.622,260.28 647.032,259.503 C643.445,258.725 639.685,258.075 635.938,257.122 C632.202,256.137 628.337,255.335 624.582,254.16 C620.805,253.057 617.007,251.982 613.342,250.702 C609.642,249.52 606.047,248.212 602.582,246.895 C601.645,246.562 600.76,246.192 599.85,245.835 C599.24,249.312 598.712,252.902 598.27,256.587 C599.192,257.06 600.09,257.537 601.04,257.997 C604.68,259.887 608.557,261.592 612.487,263.372 C616.407,265.182 620.525,266.695 624.577,268.392 C628.685,269.945 632.84,271.382 636.912,272.865 C641.052,274.158 645.125,275.427 649.067,276.658 C653.065,277.723 656.93,278.75 660.595,279.725 C664.255,280.745 667.797,281.342 671.03,282.092 C674.275,282.765 677.237,283.507 679.907,283.887 C682.57,284.332 684.89,284.717 686.802,285.037 C690.63,285.675 692.817,286.04 692.817,286.04 C692.817,286.04 690.61,285.855 686.742,285.527 C684.805,285.365 682.455,285.167 679.757,284.938 C677.047,284.777 674.037,284.277 670.725,283.865 C667.43,283.38 663.81,283.068 660.055,282.342 C656.285,281.662 652.307,280.94 648.195,280.197 C644.11,279.277 639.89,278.33 635.602,277.365 C631.362,276.202 627.025,275.087 622.722,273.848 C618.467,272.46 614.14,271.25 609.987,269.732 C605.83,268.242 601.712,266.815 597.822,265.185 C597.692,265.135 597.572,265.077 597.442,265.027 C597.157,268.82 596.965,272.695 596.905,276.662 C600.802,278.707 604.975,280.475 609.137,282.473 C613.59,284.365 618.137,286.27 622.722,288.09 C627.365,289.745 631.967,291.555 636.59,293.07 C641.232,294.515 645.78,296.04 650.24,297.337 C654.727,298.542 659.062,299.71 663.175,300.818 C667.307,301.86 671.262,302.642 674.892,303.475 C678.53,304.283 681.862,305.052 684.855,305.51 C687.84,306.03 690.442,306.482 692.585,306.857 C696.875,307.602 699.327,308.03 699.327,308.03 C699.327,308.03 696.852,307.783 692.52,307.348 C690.35,307.13 687.717,306.865 684.697,306.56 C681.662,306.32 678.277,305.792 674.577,305.245 C670.88,304.675 666.847,304.177 662.622,303.43 C658.405,302.615 653.955,301.76 649.352,300.872 C644.767,299.892 640.07,298.685 635.262,297.562 C630.475,296.37 625.685,294.88 620.845,293.533 C616.055,292.027 611.287,290.425 606.6,288.818 C603.357,287.545 600.137,286.36 596.982,285.122 C597.102,289.275 597.357,293.512 597.77,297.827 C600.397,299.072 603.06,300.312 605.762,301.565 C610.735,303.595 615.707,305.902 620.85,307.775 C626.007,309.6 631.072,311.747 636.245,313.292 C641.402,314.885 646.42,316.697 651.397,318.017 C656.375,319.367 661.182,320.682 665.742,321.925 C670.357,322.967 674.722,323.957 678.747,324.87 C682.775,325.812 686.48,326.612 689.797,327.145 C693.105,327.737 695.99,328.255 698.365,328.682 C703.12,329.535 705.84,330.02 705.84,330.02 C705.84,330.02 703.095,329.712 698.297,329.172 C695.895,328.902 692.977,328.572 689.63,328.197 C686.272,327.88 682.515,327.318 678.422,326.642 C674.322,325.99 669.88,325.283 665.18,324.537 C660.512,323.587 655.592,322.585 650.502,321.55 C645.397,320.545 640.227,319.052 634.907,317.783 C629.57,316.555 624.312,314.73 618.955,313.217 C613.607,311.652 608.405,309.642 603.195,307.9 C601.705,307.325 600.24,306.755 598.765,306.18 C598.94,307.408 599.09,308.625 599.287,309.865 C595.447,313.705 580.81,316.265 580.81,316.265 L580.812,317.022 L581.05,354.15 L581.277,354.3 C585.125,356.85 650.185,398.94 769.532,413.997 C769.66,414.01 769.79,414.025 769.915,414.042 C785.447,415.99 801.922,417.462 819.277,418.348 C832.407,419.017 845.99,419.382 860.147,419.295 C1040.98,418.182 1128.09,357.5 1131.93,344.06 C1129.847,334.562 1128.33,316.882 1128.33,316.882 L1109.012,312.742 C1106.352,287.912 1106.525,236.667 1070.232,203.27 L1180.47,177.662 C1186.605,228.06 1189.112,256.2 1189.922,271.83 C1177.97,278.297 1169.198,289.59 1168.162,315.655 C1173.075,317.245 1174.695,325.375 1168.237,326.465 C1168.307,328.517 1168.037,331.59 1168.237,333.775 C1169.225,334.637 1170.277,335.405 1171.347,336.135 C1171.062,336.585 1170.732,337.107 1170.385,337.672 C1169.922,338.42 1169.42,339.25 1168.877,340.22 C1167.713,342.557 1166.08,345.395 1164.622,348.67 C1163.19,351.955 1161.448,355.622 1159.958,359.757 C1159.188,361.815 1158.31,363.94 1157.542,366.175 C1156.795,368.422 1156.02,370.74 1155.222,373.125 C1153.645,377.902 1152.24,383.01 1150.782,388.29 C1149.47,393.607 1148.025,399.087 1146.943,404.735 C1145.677,410.352 1144.777,416.13 1143.8,421.895 C1142.95,427.682 1142.175,433.49 1141.605,439.227 C1141.402,441.642 1141.19,444.035 1140.995,446.412 C1140.73,449.693 1140.505,452.94 1140.438,456.14 C1140.345,458.89 1140.188,461.595 1140.155,464.247 C1140.185,466.905 1140.208,469.503 1140.235,472.035 C1140.172,477.095 1140.655,481.885 1140.912,486.31 C1141.085,490.74 1141.828,494.775 1142.23,498.367 C1142.475,500.16 1142.657,501.845 1142.91,503.395 C1143.22,504.935 1143.505,506.352 1143.76,507.632 C1144.797,512.753 1145.392,515.682 1145.392,515.682 L1150.968,514.242 L1156.545,512.8 C1156.545,512.8 1155.912,510.092 1154.81,505.34 C1154.532,504.155 1154.222,502.837 1153.887,501.405 C1153.61,499.96 1153.392,498.375 1153.115,496.69 C1152.635,493.307 1151.805,489.535 1151.522,485.31 C1151.155,481.105 1150.545,476.56 1150.47,471.697 C1150.372,469.267 1150.27,466.775 1150.167,464.225 C1150.12,461.672 1150.198,459.055 1150.208,456.4 C1150.152,451.085 1150.552,445.592 1150.85,440.005 C1151.232,434.425 1151.82,428.76 1152.477,423.11 C1153.26,417.467 1153.968,411.812 1155.04,406.302 C1155.932,400.76 1157.182,395.382 1158.302,390.158 C1159.573,384.973 1160.792,379.943 1162.188,375.257 C1162.892,372.912 1163.578,370.635 1164.24,368.435 C1164.917,366.237 1165.708,364.165 1166.392,362.147 C1167.718,358.085 1169.285,354.537 1170.568,351.332 C1171.482,349.098 1172.425,347.202 1173.255,345.492 C1162.777,383.797 1150.14,457.885 1161.43,514.242 C1161.715,515.657 1161.992,517.08 1162.307,518.477 L1173.545,515.94 C1173.42,515.38 1173.315,514.802 1173.195,514.242 C1162.792,465.727 1171.98,400.615 1181.257,360.965 C1181.015,363.392 1180.767,365.87 1180.51,368.44 C1176.44,408.568 1170.425,468.145 1177.535,514.242 C1177.917,516.703 1178.305,519.155 1178.76,521.535 L1190.075,519.362 C1189.752,517.695 1189.492,515.955 1189.213,514.242 C1181.885,469.427 1187.907,409.675 1191.97,369.602 C1192.203,367.277 1192.427,365.025 1192.65,362.815 C1192.972,377.535 1192.477,394.967 1191.96,413.003 C1191.007,446.19 1189.955,483.372 1193.57,514.242 C1193.943,517.39 1194.34,520.492 1194.81,523.5 L1206.19,521.717 C1205.807,519.282 1205.477,516.78 1205.165,514.242 C1201.458,483.98 1202.517,446.615 1203.472,413.33 C1203.982,395.625 1204.448,379.242 1204.227,365.068 C1207.367,387.865 1207.672,416.49 1207.963,444.49 C1208.208,468.348 1208.47,492.905 1210.463,514.242 C1210.72,516.95 1210.985,519.62 1211.297,522.217 L1222.732,520.842 C1222.475,518.703 1222.257,516.47 1222.042,514.242 C1220,493.135 1219.727,468.405 1219.48,444.372 C1219.195,416.965 1218.912,390.51 1216.292,368.31 C1223.458,397.753 1224.573,435.052 1225.552,469.132 C1226.015,485.132 1226.482,500.265 1227.482,514.242 C1227.59,515.698 1227.667,517.208 1227.787,518.64 L1239.267,517.703 C1239.172,516.578 1239.112,515.383 1239.03,514.242 C1238.005,500.285 1237.532,484.987 1237.068,468.8 C1236.13,436.277 1235.075,400.902 1228.757,371.26 C1241.218,407.473 1242.468,453.16 1243.512,491.792 C1243.725,499.572 1243.93,507.082 1244.215,514.242 C1244.237,514.828 1244.26,515.43 1244.282,516.013 L1255.792,515.527 C1255.775,515.102 1255.76,514.667 1255.742,514.242 C1255.45,506.995 1255.242,499.378 1255.025,491.48 C1254.005,453.815 1252.795,409.65 1241.35,372.75 C1240.247,369.193 1239.055,365.707 1237.752,362.3 C1238.537,363.742 1239.347,365.215 1240.112,366.775 C1241.047,368.905 1242.02,371.105 1243.015,373.367 C1243.05,373.45 1243.09,373.54 1243.13,373.63 C1243.59,374.672 1244.06,375.73 1244.53,376.8 C1244.963,377.997 1245.397,379.205 1245.838,380.427 C1246.715,382.878 1247.61,385.378 1248.527,387.917 C1249.953,393.145 1251.767,398.435 1252.897,404.037 C1253.5,406.82 1254.247,409.585 1254.747,412.432 C1255.257,415.277 1255.765,418.13 1256.275,420.985 C1256.812,423.832 1257.095,426.735 1257.515,429.592 C1257.917,432.457 1258.305,435.31 1258.545,438.167 C1258.825,441.02 1259.102,443.845 1259.377,446.64 C1259.573,449.447 1259.757,452.215 1259.943,454.945 C1260.338,460.39 1260.453,465.693 1260.675,470.702 C1260.76,475.732 1260.938,480.467 1260.925,484.87 C1261.005,493.655 1260.925,500.997 1260.88,506.142 C1260.823,511.297 1260.787,514.242 1260.787,514.242 L1272.307,514.242 C1272.307,514.242 1272.297,513.568 1272.282,512.342 C1272.265,510.957 1272.237,508.86 1272.2,506.12 C1272.112,500.947 1272.015,493.547 1271.718,484.645 C1271.617,480.197 1271.32,475.365 1271.11,470.262 C1270.757,465.152 1270.51,459.767 1269.963,454.195 C1269.705,451.412 1269.445,448.58 1269.18,445.715 C1268.828,442.85 1268.472,439.955 1268.112,437.035 C1267.795,434.112 1267.318,431.18 1266.835,428.237 C1266.33,425.297 1265.96,422.33 1265.335,419.392 C1264.735,416.455 1264.135,413.517 1263.537,410.592 C1262.948,407.665 1262.1,404.79 1261.405,401.92 C1260.085,396.158 1258.062,390.655 1256.435,385.26 C1255.617,383.14 1254.818,381.07 1254.022,379.012 C1253.83,378.512 1253.63,377.985 1253.435,377.487 C1252.938,376.223 1252.453,374.967 1251.97,373.727 C1251.402,372.52 1250.843,371.33 1250.29,370.152 C1249.185,367.802 1248.112,365.517 1247.073,363.31 C1245.943,361.14 1244.708,359.115 1243.602,357.132 C1242.448,355.172 1241.458,353.25 1240.307,351.505 C1239.107,349.777 1237.975,348.135 1236.905,346.592 C1235.838,345.057 1234.838,343.62 1233.912,342.287 C1232.945,341.03 1231.997,339.987 1231.175,338.987 C1229.955,337.54 1228.932,336.325 1228.12,335.362 C1228.645,333.845 1228.445,330.822 1228.502,327.365 C1219.512,323.575 1223.292,317.457 1228.188,316.875 C1227.27,303.885 1220.127,287.73 1211.55,277.378 C1210.145,275.68 1208.7,274.165 1207.24,272.82 C1206.292,251.212 1202.492,214.222 1195.67,159.775 L1194.597,151.202 L1188.8,149.797 C1170.425,145.352 886.637,96.202 859.065,91.432 L861.582,78.685 C864.65,79.29 1168.677,139.282 1194.31,141.972 L1201.615,142.735 L1202.015,149.662 C1234.198,143.027 1266.37,136.33 1298.597,129.877 C1266.485,137.43 1234.323,144.735 1202.175,152.105 C1202.535,157.12 1203.262,164.127 1204.17,172.157" fill="#0A0B09"/>
  </g>
</svg>
