<?xml version="1.0" encoding="UTF-8" standalone="no"?>
<!-- Created with Inkscape (http://www.inkscape.org/) -->

<svg
   xmlns:dc="http://purl.org/dc/elements/1.1/"
   xmlns:cc="http://creativecommons.org/ns#"
   xmlns:rdf="http://www.w3.org/1999/02/22-rdf-syntax-ns#"
   xmlns:svg="http://www.w3.org/2000/svg"
   xmlns="http://www.w3.org/2000/svg"
   xmlns:sodipodi="http://sodipodi.sourceforge.net/DTD/sodipodi-0.dtd"
   xmlns:inkscape="http://www.inkscape.org/namespaces/inkscape"
   version="1.1"
   id="svg15847"
   xml:space="preserve"
   width="100"
   height="100"
   viewBox="0 0 800 800"
   sodipodi:docname="graudation-publicdomainvectors.org.svg"
   inkscape:version="0.92.4 (5da689c313, 2019-01-14)"><metadata
     id="metadata15853"><rdf:RDF><cc:Work
         rdf:about=""><dc:format>image/svg+xml</dc:format><dc:type
           rdf:resource="http://purl.org/dc/dcmitype/StillImage" /><dc:title></dc:title></cc:Work></rdf:RDF></metadata><defs
     id="defs15851"><clipPath
       clipPathUnits="userSpaceOnUse"
       id="clipPath15863"><path
         d="M 0,600 H 600 V 0 H 0 Z"
         id="path15861"
         inkscape:connector-curvature="0" /></clipPath></defs><sodipodi:namedview
     pagecolor="#ffffff"
     bordercolor="#666666"
     borderopacity="1"
     objecttolerance="10"
     gridtolerance="10"
     guidetolerance="10"
     inkscape:pageopacity="0"
     inkscape:pageshadow="2"
     inkscape:window-width="724"
     inkscape:window-height="480"
     id="namedview15849"
     showgrid="false"
     inkscape:zoom="0.295"
     inkscape:cx="400"
     inkscape:cy="400"
     inkscape:window-x="0"
     inkscape:window-y="0"
     inkscape:window-maximized="0"
     inkscape:current-layer="g15855" /><g
     id="g15855"
     inkscape:groupmode="layer"
     inkscape:label="graudation-publicdomainvectors.org"
     transform="matrix(1.3333333,0,0,-1.3333333,0,800)"><g
       id="g15857"><g
         id="g15859"
         clip-path="url(#clipPath15863)"><path
           d="m 147.319,263.294 c 0.627,2.795 1.213,5.683 1.774,8.603 -2.419,-18.929 -6.439,-35.733 -11.345,-41.519 l -0.341,0.417 c 3.991,4.775 7.467,17.348 9.912,32.499 m -12.058,-29.888 -1.677,-2.319 c -0.332,-0.458 -0.658,-0.871 -0.976,-1.233 l -0.349,0.425 c 5.636,6.326 11.766,26.331 15.894,52.208 4.04,25.34 4.974,48.451 2.414,58.571 -0.009,0.063 0.013,0.315 -0.007,0.318 l 1.443,-0.242 c 1.816,-7.719 1.798,-21.248 0.465,-36.356 l -0.91,0.302 -0.086,-2.966 c -0.107,-3.67 -0.291,-7.435 -0.544,-11.231 -3.078,-23.263 -8.707,-47.214 -15.194,-58.051 z m -4.25,-1.608 -1.653,-2.473 c -0.41,-0.61 -0.804,-1.142 -1.183,-1.59 l -0.321,0.39 c 3.44,3.985 7.053,13.45 10.285,25.358 2.847,9.237 5.356,19.618 7.302,29.302 0.995,4.96 1.956,10.331 2.8,15.799 -3.018,-25.41 -9.489,-53.625 -16.247,-66.558 -0.197,-0.262 -0.393,-0.481 -0.59,-0.709 z m -5.007,-1.421 c 3.426,5.465 6.712,14.38 9.618,24.841 8.468,28.116 15.219,70.444 12.093,86.635 l 1.431,-0.24 c 2.356,-12.706 -1.1,-38.92 -5.015,-58.414 -4.147,-20.64 -10.838,-44.56 -17.763,-53.264 z m -2.059,0.516 -1.638,-1.89 -0.329,0.4 c 11.707,13.705 24.058,80.32 22.602,109.288 0.371,1.134 0.75,2.15 1.139,3.029 2.2,-25.207 -8.548,-92.843 -21.307,-111.394 z m 10.223,64.979 c 2.731,19.546 5.379,38.397 8.906,46.76 l 1.381,-0.233 c -3.574,-8.353 -6.185,-27.007 -8.942,-46.738 -3.839,-27.505 -7.83,-56.033 -15.125,-64.323 l -0.873,1.062 c 6.923,8.156 11.029,37.515 14.653,63.472 m -16.059,-61.76 c 3.486,4.401 6.338,13.331 9.05,25.633 -1.173,-6.087 -2.441,-11.614 -3.846,-16.132 -1.492,-4.26 -3.11,-7.648 -4.886,-9.886 z m -41.3,124.326 0.031,0.59 -0.127,0.25 c -0.037,0.191 -0.084,0.439 -0.121,0.631 0.049,0.39 0.107,0.772 0.163,1.157 0.743,-1.085 1.559,-2.187 2.45,-3.324 1.291,-1.598 2.715,-3.243 4.289,-4.858 3.116,-3.257 6.751,-6.455 10.544,-9.458 7.601,-6.001 15.863,-11.161 22.173,-14.801 3.157,-1.821 5.827,-3.272 7.704,-4.276 1.881,-0.993 2.957,-1.559 2.957,-1.559 0,0 -1.094,0.529 -3.011,1.454 -1.91,0.938 -4.632,2.297 -7.856,4.009 -6.444,3.421 -14.906,8.302 -22.792,14.09 -3.935,2.899 -7.733,6.009 -11.038,9.226 -1.666,1.596 -3.188,3.234 -4.579,4.84 -0.279,0.329 -0.536,0.652 -0.803,0.978 10e-4,0.344 -0.003,0.681 0.016,1.051 m -62.807,68.954 138.07,-33.123 -0.782,-5.933 -45.814,11.06 1.146,0.534 -94.702,22.781 0.736,4.38 z M 460.44,230.463 c 26.067,17.813 111.255,7.163 121.64,1.926 l 0.004,-0.013 c -0.04,-1.058 -0.153,-2.243 -0.432,-3.105 -7.12,2.5 -27.439,5.835 -49.918,7.18 -21.085,1.836 -36.604,0.869 -47.946,-1.288 -9.845,-1.5 -18.263,-3.994 -23.884,-7.839 -3.321,-2.267 -5.604,-4.927 -6.85,-7.943 0.505,4.346 2.971,8.062 7.386,11.082 m -7.735,-6.956 c 0.513,4.389 3.02,8.153 7.504,11.218 26.029,17.787 109.473,8.006 121.018,2.791 l 0.119,-0.821 0.175,-0.184 0.345,-2.55 c -13.617,5.404 -96.418,15.24 -122.192,-2.376 -3.385,-2.312 -5.708,-5.014 -6.969,-8.078 m -154.382,1.72 -0.02,0.028 0.437,3.569 c 13.949,5.026 114.704,18.943 144.089,-0.511 4,-2.648 6.411,-5.832 7.206,-9.498 -1.328,2.386 -3.405,4.526 -6.233,6.396 -17.04,11.283 -58.081,10.55 -81.028,9.107 -29.519,-1.854 -56.246,-6.371 -64.451,-9.091 m 143.34,28.416 6.163,-6.215 c 0.764,-1.282 1.315,-2.621 1.626,-4.027 -1.456,2.703 -3.795,5.146 -7.042,7.295 -28.838,19.088 -122.812,10.808 -140.345,5.2 l 0.446,3.627 c 15.023,5.437 109.766,13.589 138.9,-5.697 0.091,-0.059 0.163,-0.125 0.252,-0.183 m 16.673,3.569 c -4.535,-3.098 -7.338,-6.774 -8.387,-10.967 -0.29,0.687 -0.636,1.358 -1.033,2.013 l 0.002,0.003 -0.019,0.019 c -1.428,2.336 -3.541,4.472 -6.337,6.391 l -77.402,78.85 c 14.457,14.442 51.089,17.127 80.126,12.259 7.824,-1.313 15.101,-3.133 21.631,-5.41 36.114,-23.805 90.106,-63.122 106.546,-75.157 -22.145,4.582 -90.661,8.725 -115.127,-8.001 m 119.31,4.933 0.421,-2.908 c -16.074,4.964 -93.444,11.515 -119.516,-6.302 -3.713,-2.54 -6.25,-5.479 -7.59,-8.784 0.564,4.612 3.284,8.618 8.143,11.938 25.577,17.48 99.846,11.89 117.088,7.124 0.605,-0.443 1.095,-0.804 1.454,-1.068 M 458.77,248.656 c -3.64,-2.486 -6.132,-5.368 -7.459,-8.618 0.56,4.559 3.234,8.509 8.009,11.772 26.262,17.951 105.198,10.869 118.965,5.94 l 0.516,-3.553 c -15.705,5.074 -94.03,12.232 -120.031,-5.541 m -95.612,-6.314 c 22.444,1.127 62.609,1.358 79.446,-9.788 4.064,-2.692 6.515,-5.918 7.329,-9.625 -1.348,2.431 -3.466,4.609 -6.352,6.517 -17.097,11.322 -57.866,10.85 -80.647,9.562 -28.896,-1.633 -54.281,-5.707 -63.212,-8.422 l -0.656,0.888 0.304,2.47 c 6.943,2.551 33.821,6.89 63.788,8.398 m 0.147,4.69 c 22.278,0.979 62.173,0.949 79.07,-10.234 4.137,-2.739 6.634,-6.014 7.461,-9.767 -1.369,2.481 -3.53,4.703 -6.482,6.657 -28.301,18.738 -125.856,7.89 -143.798,1.775 l 0.441,3.596 c 6.926,2.509 33.576,6.669 63.308,7.973 m 78.836,-5.985 c 4.216,-2.793 6.761,-6.121 7.602,-9.933 -1.389,2.536 -3.594,4.817 -6.617,6.819 -28.426,18.818 -125.102,8.627 -142.942,2.638 l 0.443,3.614 c 15.284,5.776 112.768,15.886 141.514,-3.138 m -140.703,9.742 0.443,3.62 c 15.11,5.553 110.765,14.357 139.779,-4.849 4.384,-2.9 7.024,-6.34 7.89,-10.257 -1.433,2.646 -3.725,5.035 -6.897,7.134 -28.708,19.005 -123.583,10.088 -141.215,4.352 M 441.903,245.3 c 4.3,-2.846 6.89,-6.228 7.743,-10.091 -1.41,2.591 -3.659,4.924 -6.755,6.974 -28.577,18.916 -124.346,9.36 -142.08,3.498 l 0.444,3.618 c 15.197,5.665 111.773,15.117 140.648,-3.999 m 137.63,3.858 c -15.318,5.169 -94.619,12.946 -120.543,-4.774 -3.573,-2.442 -6.022,-5.28 -7.332,-8.485 0.546,4.518 3.178,8.422 7.881,11.634 26.206,17.911 106.216,10.183 119.481,5.164 z m 0.735,-5.043 c -14.921,5.26 -95.206,13.665 -121.055,-4 -3.508,-2.399 -5.91,-5.189 -7.205,-8.344 0.536,4.472 3.123,8.327 7.752,11.49 26.14,17.865 107.242,9.477 119.993,4.383 z m 0.733,-5.054 c -14.451,5.342 -95.784,14.404 -121.561,-3.212 -3.444,-2.355 -5.807,-5.101 -7.086,-8.212 0.526,4.43 3.073,8.241 7.626,11.354 26.078,17.821 108.292,8.756 120.508,3.596 z m -339.442,62.941 c 0.955,0.544 1.841,1.05 2.633,1.508 l 52.282,-70.815 -0.536,-4.369 -10.817,14.034 z m -1.195,-0.672 22.214,-32.266 -24.359,30.476 c 0.158,0.087 1.987,1.702 2.145,1.79 m 56.812,-62.914 -0.461,-3.757 -51.34,69.535 c 1.342,0.784 2.191,1.292 2.191,1.292 0.112,0.265 0.22,0.552 0.328,0.83 z m 0.867,7.082 -0.624,-5.101 -48.956,67.451 c 0.347,0.985 0.682,2.027 1.004,3.129 z m -47.007,71.665 c 0.277,1.251 0.538,2.534 0.786,3.844 12.212,-12.515 41.644,-51.55 48.106,-60.167 l -0.615,-5.014 z m 48.043,-63.243 -0.794,-6.464 -48.352,65.178 c 0.246,0.911 0.484,1.855 0.713,2.823 z m -145.68,119.931 c 1.372,-1.105 1.996,-2.383 2.119,-3.767 -0.448,0.56 -1.003,1.013 -1.676,1.316 -0.048,0.021 -0.108,0.046 -0.161,0.07 -0.135,0.24 -0.294,0.475 -0.492,0.703 z m -1.784,-11.182 c 0.194,0.346 0.39,0.695 0.583,1.046 -0.18,-0.633 -0.417,-1.31 -0.725,-2.021 l -0.036,0.02 c -0.036,0.162 -0.066,0.302 -0.1,0.458 0.092,0.165 0.182,0.328 0.278,0.497 m 2.163,5.028 c -0.196,0.569 -0.527,0.957 -0.996,1.188 l 0.175,1.414 c 0.112,-0.049 0.228,-0.098 0.326,-0.142 0.844,-0.378 1.46,-1.075 1.783,-2.018 0.775,-2.261 -0.303,-6.205 -1.434,-8.254 l -0.793,0.135 -0.514,0.271 c 1.416,2.896 1.999,5.813 1.453,7.406 m 1.599,6.132 c -0.388,0.732 -0.943,1.383 -1.736,1.899 -0.002,10e-4 -0.005,0.002 -0.009,0.003 l 0.181,1.441 c 0.19,-0.097 0.382,-0.18 0.572,-0.303 3.044,-1.984 3.807,-5.789 2.308,-10.774 0.009,0.432 -0.013,0.852 -0.065,1.259 0.521,2.197 0.407,4.5 -1.251,6.475 m -8.687,-15.017 8.708,-1.461 -2.555,-15.239 -8.708,1.459 z m 1.924,11.74 c 0.297,0.245 0.657,0.39 1.073,0.451 l -0.162,-1.514 c -0.034,-0.023 -0.084,-0.024 -0.116,-0.052 -0.587,-0.623 -0.64,-2.154 0.763,-8.299 l -1.326,-0.308 c -1.346,5.871 -1.649,8.557 -0.232,9.722 m 1.533,4.752 -0.149,-1.387 c -0.211,-0.007 -0.403,-0.055 -0.558,-0.162 -0.4,-0.28 -0.69,-0.861 -0.877,-1.67 -0.291,-0.124 -0.566,-0.278 -0.813,-0.481 -0.317,-0.261 -0.56,-0.569 -0.764,-0.905 0.161,2.053 0.713,3.498 1.673,4.171 0.435,0.303 0.935,0.446 1.488,0.434 m -0.516,1.667 c 0.24,0.169 0.486,0.301 0.739,0.412 l -0.081,-0.734 c -0.407,0.021 -0.802,-0.008 -1.176,-0.102 0.166,0.156 0.34,0.3 0.518,0.424 m 30.296,49.575 0.669,-1.233 -23.762,-12.918 -5.231,-42.097 -0.587,0.098 4.561,42.829 z M 138.134,300.229 c 1.028,8.566 1.995,16.6 3.008,23.554 0.708,3.948 1.441,7.511 2.212,10.579 0.013,-1.819 -0.015,-3.746 -0.083,-5.762 -1.332,-8.107 -2.54,-18.157 -3.788,-28.543 -0.986,-8.205 -1.98,-16.482 -3.071,-24.342 -1.393,-6.776 -2.938,-13.309 -4.581,-19.257 2.622,13.146 4.573,29.378 6.303,43.771 m 58.261,77.231 -41.304,9.975 0.738,5.94 124.694,-29.92 67.341,49.151 -0.967,-4.404 -68.164,-49.753 -31.212,7.537 0.659,-1.031 -27.171,6.562 c -7.531,1.854 -15.897,3.871 -24.614,5.943 m 58.38,-47.228 c 2.582,1.856 6.153,3.516 10.617,4.933 21.057,6.688 56.632,6.829 78.863,3.101 7.017,-1.176 12.512,-2.718 15.832,-4.414 0.072,-0.056 0.152,-0.111 0.219,-0.166 l 77.727,-76.385 c -32.775,16.167 -118.664,8.945 -135.341,3.704 l 0.026,0.208 -1.505,0.186 c -6.243,8.339 -36.938,49.127 -49.093,61.231 0.369,2.09 0.692,4.24 0.981,6.397 z m -23.885,-31.435 -6.906,4.948 c 3.531,21.069 6.109,51.682 3.196,55.771 6.798,-10.767 4.816,-49.935 3.928,-60.608 -0.069,-0.036 -0.15,-0.077 -0.218,-0.111 m 364.672,-77.96 c 0.802,4.973 -4.906,12.363 -10.048,17.874 l -3.764,25.893 -0.743,0.549 c -0.677,0.498 -68.907,50.737 -111.819,79.008 l -0.633,0.314 c -6.815,2.389 -14.398,4.294 -22.537,5.658 -28.775,4.825 -66.559,2.798 -83.21,-12.726 -3.763,2.109 -9.744,3.858 -17.823,5.214 -22.747,3.814 -59.237,3.642 -80.929,-3.249 -2.99,-0.95 -5.639,-2.014 -7.923,-3.183 0.759,8.48 0.895,17.493 -0.36,23.262 l 23.911,-5.776 71.167,51.946 2.316,10.551 -23.548,5.12 -185.985,46.714 -0.577,0.145 L 30.742,435.627 7.631,430.499 5.811,419.64 94.208,398.391 C 85.353,392.029 74.317,378.78 72.172,360.114 l 0.014,-0.002 c -0.157,-1.091 0.052,-1.354 0.198,-1.846 -0.092,-2.464 0.183,-4.394 0.53,-6.782 l 0.265,-1.876 0.342,-0.453 c 8.009,-10.708 30.342,-27.965 57.853,-40.64 -0.482,-2.869 -0.962,-5.8 -1.449,-8.762 l -0.28,-1.712 c -4.15,-25.278 -9.316,-56.737 -15.939,-62.178 l -2.229,-1.831 5.394,-6.571 0.322,0.264 4.354,-5.302 2.175,1.787 0.736,-0.894 0.975,0.8 2.234,-2.72 2.231,1.833 c 0.454,0.373 0.901,0.81 1.355,1.316 l 0.833,-1.014 2.23,1.834 c 0.351,0.289 0.699,0.61 1.046,0.963 l 1.872,-2.282 2.231,1.836 c 10.284,8.445 15.292,47.274 16.318,73.164 8.028,-2.533 16.014,-4.475 23.777,-5.775 15.153,-2.542 29.667,-2.696 43.144,-0.458 l 1.483,0.247 0.314,1.468 c 0.201,0.938 0.403,1.934 0.605,2.981 l 6.378,-4.571 1.357,1.896 c 0.703,0.344 1.458,0.722 2.26,1.136 l 53.875,-87.435 1.363,0.116 c 5.568,0.52 13.462,3.535 23.626,5.354 28.755,5.15 70.019,12.692 105.815,5.68 4.725,-0.926 9.189,-2.184 13.237,-3.475 5.469,-8.811 12.35,-11.825 17.24,-12.881 h 0.003 c 7.172,-1.055 14.978,1.54 19.845,6.355 2.266,2.244 3.565,5.018 3.713,7.445 17.249,16.248 75.534,10.225 106.373,5.054 5.119,-0.86 9.288,-1.875 12.39,-3.082 l 2.546,-0.974 z"
           style="fill:#231f20;fill-opacity:1;fill-rule:nonzero;stroke:none"
           id="path15865"
           inkscape:connector-curvature="0" /><path
           d="m 347.654,407.707 1.242,5.653 -68.373,-49.905 -124.694,29.92 -0.738,-5.94 41.304,-9.975 c 8.718,-2.072 17.083,-4.089 24.613,-5.943 l 57.909,-13.983 z"
           style="fill:#ffffff;fill-opacity:1;fill-rule:nonzero;stroke:none"
           id="path15867"
           inkscape:connector-curvature="0" /><path
           d="m 13.826,427.433 -1.146,-0.199 -0.877,-5.225 139.534,-33.681 0.637,5.958 z"
           style="fill:#ffffff;fill-opacity:1;fill-rule:nonzero;stroke:none"
           id="path15869"
           inkscape:connector-curvature="0" /><path
           d="m 116.48,233.562 0.866,-1.055 c 2.209,2.116 4.175,5.994 5.967,11.106 3.624,11.661 6.351,29.979 8.812,47.506 -4.12,-24.882 -8.849,-50.921 -15.645,-57.557"
           style="fill:#ffffff;fill-opacity:1;fill-rule:nonzero;stroke:none"
           id="path15871"
           inkscape:connector-curvature="0" /><path
           d="m 138.133,300.229 c -1.73,-14.393 -3.679,-30.625 -6.302,-43.771 1.643,5.948 3.188,12.48 4.582,19.257 1.09,7.859 2.085,16.137 3.069,24.342 1.248,10.386 2.458,20.436 3.79,28.543 0.067,2.016 0.095,3.943 0.082,5.762 -0.771,-3.068 -1.505,-6.631 -2.211,-10.579 -1.014,-6.954 -1.981,-14.988 -3.01,-23.554"
           style="fill:#ffffff;fill-opacity:1;fill-rule:nonzero;stroke:none"
           id="path15873"
           inkscape:connector-curvature="0" /><path
           d="m 147.319,263.294 c -2.561,-15.866 -6.25,-28.927 -10.479,-33.145 l 0.868,-1.054 c 7.063,6.808 11.645,32.542 13.609,55.749 -1.11,-7.365 -2.461,-14.688 -3.998,-21.55"
           style="fill:#ffffff;fill-opacity:1;fill-rule:nonzero;stroke:none"
           id="path15875"
           inkscape:connector-curvature="0" /><path
           d="m 148.24,298.584 c -0.843,-5.468 -1.803,-10.839 -2.799,-15.799 -1.946,-9.684 -4.455,-20.065 -7.302,-29.302 -3.414,-12.58 -7.254,-22.44 -10.865,-25.988 l 0.869,-1.056 c 0.72,0.693 1.446,1.626 2.173,2.726 l -0.519,0.631 0.527,0.43 c 0.551,0.452 1.107,1.057 1.669,1.8 6.759,12.933 13.23,41.148 16.247,66.558"
           style="fill:#ffffff;fill-opacity:1;fill-rule:nonzero;stroke:none"
           id="path15877"
           inkscape:connector-curvature="0" /><path
           d="m 150.56,341.376 c 0.021,-0.003 -0.005,-0.273 0.005,-0.337 2.559,-10.119 1.635,-33.176 -2.406,-58.517 -4.263,-26.719 -10.673,-47.254 -16.457,-52.857 l 0.888,-0.928 c 13.665,12.87 24.896,89.096 19.413,112.397 z"
           style="fill:#ffffff;fill-opacity:1;fill-rule:nonzero;stroke:none"
           id="path15879"
           inkscape:connector-curvature="0" /><path
           d="m 147.715,341.853 c 3.126,-16.192 -3.625,-58.518 -12.093,-86.635 -3.253,-11.712 -6.971,-21.427 -10.84,-26.587 l 0.16,-0.24 c 7.425,6.969 14.759,32.763 19.192,54.827 3.914,19.493 7.368,45.69 5.012,58.395 z"
           style="fill:#ffffff;fill-opacity:1;fill-rule:nonzero;stroke:none"
           id="path15881"
           inkscape:connector-curvature="0" /><path
           d="M 144.581,338.691 C 146.069,309.044 133.1,239.959 121.157,228.519 l 0.868,-1.056 c 13.77,12.881 26.03,87.494 23.694,114.258 -0.39,-0.88 -0.768,-1.896 -1.138,-3.03"
           style="fill:#ffffff;fill-opacity:1;fill-rule:nonzero;stroke:none"
           id="path15883"
           inkscape:connector-curvature="0" /><path
           d="m 143.074,342.632 c -3.526,-8.362 -6.175,-27.214 -8.906,-46.76 -3.723,-26.671 -7.943,-56.866 -15.216,-64.027 l 0.86,-1.094 c 7.668,7.395 11.763,36.697 15.705,64.929 2.756,19.73 5.364,38.367 8.938,46.719 z"
           style="fill:#ffffff;fill-opacity:1;fill-rule:nonzero;stroke:none"
           id="path15885"
           inkscape:connector-curvature="0" /><path
           d="m 155.377,373.829 c 1.658,-1.975 1.772,-4.279 1.251,-6.476 0.052,-0.406 0.073,-0.826 0.065,-1.258 1.498,4.985 0.736,8.79 -2.308,10.774 -0.192,0.124 -0.382,0.206 -0.572,0.303 l -0.18,-1.441 c 0.003,-10e-4 0.006,-0.002 0.008,-0.003 0.792,-0.515 1.348,-1.167 1.736,-1.899"
           style="fill:#ffffff;fill-opacity:1;fill-rule:nonzero;stroke:none"
           id="path15887"
           inkscape:connector-curvature="0" /><path
           d="m 149.113,376.547 c 0.374,0.093 0.769,0.124 1.177,0.102 l 0.079,0.735 c -0.252,-0.111 -0.498,-0.245 -0.737,-0.413 -0.179,-0.124 -0.352,-0.268 -0.519,-0.424"
           style="fill:#ffffff;fill-opacity:1;fill-rule:nonzero;stroke:none"
           id="path15889"
           inkscape:connector-curvature="0" /><path
           d="m 151.337,362.172 c 0.035,-0.156 0.064,-0.295 0.1,-0.459 l 0.036,-0.019 c 0.308,0.711 0.545,1.388 0.726,2.021 -0.195,-0.351 -0.39,-0.7 -0.583,-1.046 -0.096,-0.169 -0.187,-0.331 -0.279,-0.497"
           style="fill:#ffffff;fill-opacity:1;fill-rule:nonzero;stroke:none"
           id="path15891"
           inkscape:connector-curvature="0" /><path
           d="m 153.681,371.469 c 0.052,-0.023 0.113,-0.047 0.161,-0.07 0.673,-0.301 1.227,-0.754 1.677,-1.316 -0.124,1.385 -0.748,2.664 -2.12,3.769 l -0.209,-1.679 c 0.197,-0.227 0.357,-0.463 0.491,-0.704"
           style="fill:#ffffff;fill-opacity:1;fill-rule:nonzero;stroke:none"
           id="path15893"
           inkscape:connector-curvature="0" /><path
           d="m 148.66,374.87 c -0.96,-0.673 -1.512,-2.118 -1.673,-4.171 0.203,0.336 0.446,0.644 0.762,0.905 0.248,0.203 0.524,0.357 0.814,0.481 0.187,0.808 0.478,1.39 0.876,1.669 0.156,0.108 0.348,0.156 0.559,0.163 l 0.148,1.388 c -0.551,0.011 -1.051,-0.131 -1.486,-0.435"
           style="fill:#ffffff;fill-opacity:1;fill-rule:nonzero;stroke:none"
           id="path15895"
           inkscape:connector-curvature="0" /><path
           d="m 153.777,367.698 c 0.547,-1.594 -0.037,-4.51 -1.452,-7.407 l 0.514,-0.272 0.794,-0.133 c 1.131,2.049 2.207,5.992 1.433,8.253 -0.323,0.943 -0.94,1.64 -1.783,2.019 -0.098,0.044 -0.214,0.093 -0.326,0.141 l -0.176,-1.414 c 0.47,-0.232 0.801,-0.618 0.996,-1.187"
           style="fill:#ffffff;fill-opacity:1;fill-rule:nonzero;stroke:none"
           id="path15897"
           inkscape:connector-curvature="0" /><path
           d="m 148.614,370.552 c -1.417,-1.164 -1.114,-3.851 0.232,-9.722 l 1.326,0.308 c -1.404,6.145 -1.35,7.676 -0.763,8.299 0.032,0.027 0.082,0.029 0.116,0.052 l 0.162,1.514 c -0.416,-0.061 -0.776,-0.206 -1.073,-0.451"
           style="fill:#ffffff;fill-opacity:1;fill-rule:nonzero;stroke:none"
           id="path15899"
           inkscape:connector-curvature="0" /><path
           d="m 156.834,412.395 23.777,13.018 -0.676,1.183 -24.353,-13.347 -4.566,-42.853 0.587,-0.098 z"
           style="fill:#ffffff;fill-opacity:1;fill-rule:nonzero;stroke:none"
           id="path15901"
           inkscape:connector-curvature="0" /><path
           d="m 146.691,358.812 -2.555,-15.241 8.707,-1.459 2.555,15.239 z"
           style="fill:#ffffff;fill-opacity:1;fill-rule:nonzero;stroke:none"
           id="path15903"
           inkscape:connector-curvature="0" /></g></g></g></svg>