<?xml version="1.0" encoding="iso-8859-1"?>
<!-- Generator: Adobe Illustrator 19.0.0, SVG Export Plug-In . SVG Version: 6.00 Build 0)  -->
<svg version="1.1" id="Layer_1" xmlns="http://www.w3.org/2000/svg" xmlns:xlink="http://www.w3.org/1999/xlink" x="0px" y="0px"
	 viewBox="0 0 504.4 504.4" style="enable-background:new 0 0 504.4 504.4;" xml:space="preserve">
<path style="fill:#64B5F6;" d="M258,295.2c14.8,0,26.4-7.2,28.4-23.2H230C231.6,288,243.2,295.2,258,295.2z"/>
<path style="fill:#FFD54F;" d="M290.8,268.4L290.8,268.4L290.8,268.4c30,0,59.2-22.8,66.8-52.8c0-0.4,24-148,24-148
	c2.8-16-0.4-30.8-10-42c-9.2-10.8-21.2-16.8-37.2-17.2l0,0c0,1.6,1.2,3.6,1.2,6c0,2-0.8,4-1.6,5.6v0.4c11.6,0.4,21.6,5.2,28.4,13.2
	c7.2,8.4,10,20,8,32L346.8,204c0,0.8-1.2,0.8-2,0.8H169.2c-0.8,0-1.6,0.4-2-0.8L143.6,65.2c-2-12.8,0.8-23.6,7.6-32
	c7.2-8.4,16-12.4,28-13.2V8c-16,0.4-28,6.8-37.2,17.6c-9.6,11.2-13.2,26-10.8,42c17.2,130.4,19.2,143.2,19.6,146
	c7.6,29.2,42,54.4,72.4,54.4h2.8l0,0l0,0h64.8V268.4z"/>
<g>
	<path style="fill:#FFCDD2;" d="M317.2,503.6c-0.8,0-1.6-0.4-2-0.4C315.6,503.2,316.4,503.6,317.2,503.6z"/>
	<path style="fill:#FFCDD2;" d="M335.6,504c-1.2,0-2.4,0-3.6,0.4C333.2,504,334.4,504,335.6,504z"/>
</g>
<path style="fill:#FF8A65;" d="M327.6,500.4c40.8,0,75.6-36.8,75.6-79.2c0-43.6-34.8-81.6-76-81.6h-59.6v12h59.6
	c35.2,0,63.6,30,63.6,67.2c0,35.2-28.4,64-63.6,64l0,0c-35.6,0-63.6-26.4-63.6-61.2V342v-2v-2v-37.6h-12V340v16v65.6
	C251.6,463.6,287.2,500.4,327.6,500.4z"/>
<g>
	<path style="fill:#FFCDD2;" d="M248.4,433.6c0-0.4,0-0.4,0-0.8C248,432.8,248.4,433.2,248.4,433.6z"/>
	<path style="fill:#FFCDD2;" d="M247.6,428.4c-0.4-2.4-0.4-4.8-0.4-7.2C247.2,423.6,247.2,426,247.6,428.4z"/>
	<path style="fill:#FFCDD2;" d="M327.6,504.4c-2.4,0-4.8,0-6.8-0.4C322.8,504.4,325.2,504.4,327.6,504.4z"/>
</g>
<rect x="152.4" y="339.6" style="fill:#FF7043;" width="95.2" height="12"/>
<polygon style="fill:#B2DFDB;" points="121.6,387.2 148.4,369.2 148.4,357.6 148.4,355.6 148.4,341.6 148.4,339.6 148.4,327.6 
	121.6,304 100.8,304 100.8,387.2 "/>
<g>
	<circle style="fill:#FFCDD2;" cx="192" cy="14.4" r="8"/>
	<path style="fill:#FFCDD2;" d="M324,6.4c-4.4,0-8,3.6-8,8s3.6,8,8,8c2.8,0,4.8-1.2,6.4-3.2V10C328.8,7.6,326.4,6.4,324,6.4z"/>
	<path style="fill:#FFCDD2;" d="M331.6,14.4c0-1.6-0.8-3.6-1.6-4.8v9.2C331.2,17.6,331.6,16,331.6,14.4z"/>
</g>
<path d="M327.6,504.4L327.6,504.4L327.6,504.4c-44.4,0-81.6-38-81.6-83.2V300c0-2.4,1.6-4,4-4s4,1.6,4,4v121.2
	c0,40.8,33.6,75.2,73.6,75.2s73.6-34.8,73.6-76c0-42.8-34-78.8-74-78.8h-55.6c-2.4,0-4-1.6-4-4s1.6-4,4-4h55.6
	c44.4,0,82,39.6,82,86.8C409.2,466,371.6,504.4,327.6,504.4L327.6,504.4z"/>
<path d="M327.6,486.8h-0.4c-36,0-65.6-29.6-65.6-65.6V300c0-2.4,1.6-4,4-4s4,1.6,4,4v49.6h57.6c35.6,0,66,32,66,70.4
	C392.8,456.4,362.8,486.8,327.6,486.8z M269.6,357.6v63.6c0,31.6,26,57.6,57.6,57.6h0.4c30.8,0,57.2-27.2,57.2-59.2
	c0-33.6-26.4-62.4-58-62.4h-57.2V357.6z"/>
<path d="M247.6,341.6h-95.2c-2.4,0-4-1.6-4-4s1.6-4,4-4h95.2c2.4,0,4,1.6,4,4S250,341.6,247.6,341.6z"/>
<path d="M247.6,357.6h-95.2c-2.4,0-4-1.6-4-4s1.6-4,4-4h95.2c2.4,0,4,1.6,4,4S250,357.6,247.6,357.6z"/>
<path d="M291.6,274.4H228c-2.4,0-4-1.6-4-4s1.6-4,4-4h63.6c2.4,0,4,1.6,4,4S293.6,274.4,291.6,274.4z"/>
<path d="M122.4,393.2H99.2c-2.4,0-4-1.6-4-4V302c0-2.4,1.6-4,4-4h23.2c0.8,0,2,0.4,2.8,0.8l28.4,24.8c0.8,0.8,1.2,2,1.2,3.2v43.6
	c0,1.2-0.8,2.4-1.6,3.2l-28.4,19.2C123.6,393.2,123.2,393.2,122.4,393.2z M102.8,385.2h18l25.6-17.2v-39.6l-26-22.8h-17.6V385.2z"/>
<path d="M258,302.4c-16.8,0-31.2-12-34-28c-33.6-0.4-69.2-26.8-77.2-58V216c-0.4-4.4-19.6-146.8-19.6-146.8
	c-2.8-17.6,1.2-34.4,12-46.8C150,9.6,165.6,2.8,183.6,2.8c2.4,0,4,1.6,4,4s-1.6,4-4,4c-15.2,0-28.8,6-38,16.8S132.8,52.8,135.2,68
	c16.4,121.6,19.2,142.8,19.6,146.8c7.2,27.6,40,52,70,52h2.8c2,0,4,1.6,4.4,3.6c0.8,14,12.4,24.4,26.4,24.4s25.6-10.4,26.4-24
	c0-0.4,0-0.8,0.4-1.2c1.2-2.4,2.8-2.8,4-2.8h2.8c29.2,0,57.2-22,64.8-51.2c0-0.8,24-148,24-148c2.4-15.6-0.8-29.6-10-40.4
	s-22.4-16.8-38-16.8c-2.4,0-4-1.6-4-4s1.6-4,4-4c17.6,0,33.2,6.8,44,19.6c10.4,12.4,14.8,28.8,12,46.8
	c-20.4,125.6-23.6,145.2-24.4,148.4l0,0c-8.4,32.4-39.2,56.8-72,57.2C289.2,290.4,275.2,302.4,258,302.4z M345.6,206.8H170
	c-2,0-3.6-1.6-4-3.2L142.4,65.2c-2-12.8,0.8-24.4,8.8-33.6c7.6-8.8,18.8-13.6,32-13.6c2.4,0,4,1.6,4,4s-1.6,4-4,4
	c-10.8,0-20,4-26,10.8c-6,7.2-8.4,16.8-6.8,26.8l22.8,135.2H342l22.8-135.2c1.6-10.4-0.4-18.8-6.8-26.4C352,30,342.8,26,332,26
	c-2.4,0-4-1.6-4-4s1.6-4,4-4c12.8,0,24.4,4.8,32,14c8,9.2,10.8,20.4,8.8,32.8l-23.6,138.4C349.2,205.2,347.6,206.8,345.6,206.8z"/>
<path d="M122.8,391.2c-2.4,0-4-1.6-4-4v-51.6c0-2.4,1.6-4,4-4s4,1.6,4,4v51.6C126.8,389.6,124.8,391.2,122.8,391.2z"/>
<path d="M172.4,206.8h-20c-2.4,0-4-1.6-4-4s1.6-4,4-4h20c2.4,0,4,1.6,4,4S174.4,206.8,172.4,206.8z"/>
<path d="M358.8,206.8h-12c-2.4,0-4-1.6-4-4s1.6-4,4-4h12c2.4,0,4,1.6,4,4S361.2,206.8,358.8,206.8z"/>
<path d="M192,28c-7.6,0-14-6.4-14-14s6.4-14,14-14s14,6.4,14,14S199.6,28,192,28z M192,8.4c-3.2,0-6,2.8-6,6s2.8,6,6,6s6-2.8,6-6
	S195.2,8.4,192,8.4z"/>
<path d="M324,28c-7.6,0-14-6.4-14-14s6.4-14,14-14s14,6.4,14,14S331.6,28,324,28z M324,8.4c-3.2,0-6,2.8-6,6s2.8,6,6,6s6-2.8,6-6
	S327.2,8.4,324,8.4z"/>
<g>
</g>
<g>
</g>
<g>
</g>
<g>
</g>
<g>
</g>
<g>
</g>
<g>
</g>
<g>
</g>
<g>
</g>
<g>
</g>
<g>
</g>
<g>
</g>
<g>
</g>
<g>
</g>
<g>
</g>
</svg>
